<svg version="1.2" xmlns="http://www.w3.org/2000/svg" viewBox="0 0 288 468" width="288" height="468"><style>.s0{fill:#5da901}.s1{fill:#5c8c09}.s2{fill:#231f20}.s3{fill:#ffffff}.s4{fill:#037f20}</style><path class="s0" d="m244.6 385.4c-11.7 31.7-35.6 56.7-65.1 70.4c-10.9 3.3-22.3 5.1-34 5.1q-1.8 0-3.7-0.1q-1.4 0-2.9-0.1q-0.1 0-0.3 0q-0.6-0.1-1.3-0.1q-1.1-0.1-2.2-0.2q-5.2-0.5-10.4-1.4q-1-0.2-1.9-0.4q-1.1-0.2-2.2-0.4q-1.1-0.3-2.2-0.5q-1.1-0.3-2.2-0.6q-1.2-0.3-2.3-0.6q-0.9-0.3-1.9-0.6q-6.6-2-12.9-4.7q-1.3-0.5-2.6-1.1q-0.3-0.2-0.6-0.3q-1.6-0.7-3.2-1.6q-1.6-0.8-3.2-1.6c-25.1-13.6-45.3-35.9-55.5-63.5c-19.3-52.4-4.4-116 23.8-162.2c8-13.9 15.6-28.2 22.5-42.5c8.3-17.4 8.3-36.9 16.4-54.2c4.6-9.8 12.2-17.8 21.5-23.1c6.1-3.5 12.8-5.9 19.9-6.9q0.9-0.1 1.8-0.2q1.8-0.2 3.5-0.2q1.1-0.1 2.1-0.1c3.7 0 7.3 0.4 10.9 1.1c11 6.1 20 15.3 25.3 26.6c4.3 9.2 6.5 18.8 8.5 28.1c2.1 9.2 4 17.9 7.9 26c6.4 13.3 13.8 27.5 22.2 42.1c26 42.5 46 109 24.3 167.8z" /><path class="s1" d="m220.3 217.6c26 42.5 46 109 24.3 167.8c-11.7 31.7-35.6 56.7-65.1 70.4c-10.9 3.3-22.3 5.1-34 5.1q-1.8 0-3.7-0.1q-1.4 0-2.9-0.1q-0.1 0-0.3 0q-0.6-0.1-1.3-0.1q-1.1-0.1-2.2-0.2q-5.2-0.5-10.4-1.4q-1-0.2-1.9-0.4q-1.1-0.2-2.2-0.4q-1.1-0.3-2.2-0.5q-1.1-0.3-2.2-0.6q-1.2-0.3-2.3-0.6q-0.9-0.3-1.9-0.6q-6.6-2-12.9-4.7q-1.3-0.5-2.5-1.1q-0.4-0.1-0.7-0.3q-1.6-0.7-3.2-1.6q-1.6-0.8-3.2-1.6q5.8 0.6 11.8 0.6c49.2 0 94.5-31.5 111.5-77.7c19.4-52.5 4.5-116.1-23.8-162.3c-7.9-13.9-15.5-28.2-22.4-42.5c-8.4-17.4-8.3-36.9-16.4-54.2q-1.4-3-3.2-5.8c-2.5-3.9-5.5-7.4-8.9-10.5q0.9-0.1 1.8-0.2c1.2-0.1 2.3-0.2 3.5-0.2q1.1-0.1 2.1-0.1c3.7 0 7.3 0.4 10.9 1.1c11 6.1 20 15.3 25.3 26.6c4.3 9.2 6.5 18.8 8.5 28.1c2.1 9.2 4 17.9 7.9 26c6.4 13.3 13.8 27.5 22.2 42.1z" /><path fill-rule="evenodd" class="s2" d="m244.6 385.4c-11.7 31.7-35.6 56.7-65.1 70.4c-16.2 7.5-34.1 11.6-52.6 11.6c-52.3 0-99.6-32.9-117.7-82c-21.6-58.8-1.6-125.3 24.4-167.8c8.3-14.6 15.8-28.8 22.1-42.1c4-8.1 5.9-16.8 7.9-26c2.1-9.3 4.2-18.9 8.5-28.1c9.6-20.5 31.6-34.2 54.8-34.2c10.4 0 20.6 2.7 29.5 7.6c11 6.1 20 15.3 25.3 26.6c4.3 9.2 6.5 18.8 8.5 28.1c2.1 9.2 4 17.9 7.9 26c6.4 13.3 13.8 27.5 22.2 42.1c26 42.5 46 109 24.3 167.8zm-35.6-161.1l-0.1-0.2c-8.5-14.9-16.1-29.3-22.6-42.9c-4.6-9.5-6.7-19.3-8.9-28.9c-2-9-3.8-17.4-7.5-25.3c-4.6-9.9-13-17.7-22.9-22.3c-6.2-2.8-13.1-4.4-20.1-4.4q-4.4 0-8.7 0.8c-14.8 2.8-27.9 12.5-34.2 25.9c-3.7 7.9-5.6 16.3-7.6 25.3c-2.1 9.6-4.3 19.4-8.8 28.9c-6.6 13.6-14.2 28.1-22.7 42.9l-0.1 0.2c-24.4 40-43.3 102.1-23.2 156.6c12.5 34.1 40.9 59.5 74.9 69.2q0 0 0.1 0c9.7 2.7 19.9 4.2 30.3 4.2c46.9 0 89.2-29.5 105.4-73.4c20.1-54.5 1.1-116.6-23.3-156.6z" /><path class="s2" d="m121.3 97.9c-0.8-2.4-0.8-2.7-1.2-5q-0.7-3.4-1.1-6.8c-0.5-4.5-0.6-9.1-0.4-13.7c0.4-9.3 2.2-18.6 5.6-27.7c1.7-4.5 3.7-8.9 6.2-13.2c2.4-4.2 5.3-8.3 8.4-12.2c3.3-3.7 6.7-7.4 10.5-10.7c1.8-1.7 3.8-3.2 5.8-4.8c1-0.8 2-1.5 3-2.2c0.6-0.3 1-0.8 1.6-1c0.3-0.1 0.8 0 1.5 0.5c0.7 0.4 1.7 1.1 2.9 2.3l5.5 7.7c0.8 1.6 1.2 2.6 1.5 3.4c0.2 0.7 0.2 1.2 0.1 1.5c-0.4 0.3-0.8 0.6-1.2 0.9c-0.9 0.6-1.7 1.1-2.5 1.7c-1.6 1.3-3.3 2.5-4.7 3.9c-3.2 2.5-5.9 5.4-8.6 8.3c-2.7 3-5.1 6.2-7.3 9.4q-3.2 5-5.8 10.4c-3.4 7.2-6 14.9-7.5 22.8c-0.8 4-1.3 8-1.7 12.1q-0.2 3-0.3 6.1c-0.1 2-0.1 4.2 0 5.9z" /><path class="s3" d="m141.9 43.4q145.1-8.2 138.9 122.3q-127.9-12.2-138.9-122.3z" /><path class="s4" d="m277.7 170.3q-5.6 0-14.6-1q0 0 0 0c-12.9-2.7-31.5-8-50.6-17.6c-38.2-19.3-63.1-48.4-73-85.1c-0.5-7.2-0.4-14.8 0.3-23q0.8 0 2.1 0.1c6.1 0.5 24.3 2.5 45.7 10.7q0 0 0 0c32.6 12.6 72.5 39.7 86.7 97.8q1.6 6.2 2.7 13q0.4 2.5 0.7 5.1z" /><path fill-rule="evenodd" class="s2" d="m287.3 166l-0.3 6.8l-6.8-0.6c-0.6-0.1-7.1-0.7-17.1-2.9q0 0 0 0c-12.9-2.7-31.5-8-50.6-17.6c-38.2-19.3-63.1-48.4-73-85.1q-3-10.9-4.1-22.6l-0.7-6.8l6.8-0.4c3-0.1 72.5-3.6 114.8 38.4c22.4 22.2 32.8 52.7 31 90.8zm-138-116.1c12.9 83 99.7 103.9 125.1 108.2q0-3-0.1-5.9c-1-28-10.2-50.8-27.2-67.6c-17.1-17-39.7-25.7-59.5-30.2q0 0 0 0c-16-3.5-30.2-4.4-38.3-4.5z" /></svg>