<svg version="1.2" xmlns="http://www.w3.org/2000/svg" viewBox="0 0 378 418" width="378" height="418"><style>.s0{fill:#ffffff}.s1{fill:#c4f27c}.s2{fill:#7daa13}.s3{fill:#231f20}</style><path class="s0" d="m370.6 229.3c0 57.7-26.9 109.1-68.9 142.4q-6.5 5.2-13.4 9.7c-8.2 5.4-16.9 10.1-25.9 14.1q-0.4 0.1-0.7 0.3c-15.4 6.8-31.9 11.4-49.2 13.7q-3.3 0.4-6.7 0.7q-8.4 0.8-17 0.8q-8.5 0-16.9-0.8q-3.4-0.3-6.7-0.7c-17.3-2.3-33.8-6.9-49.2-13.7q-0.3-0.2-0.7-0.3c-9-4-17.7-8.7-25.8-14.1q-7-4.5-13.5-9.7c-42-33.3-68.9-84.7-68.9-142.4c0-59.1 28.2-113 71.9-147.3q6.8-5.2 13.9-9.9c8.4-5.4 17.2-10.1 26.3-14q0.3-0.2 0.6-0.3c15.4-6.6 31.9-11 49.1-13q3.4-0.4 6.8-0.7q6.5-0.5 13.1-0.5q6.7 0 13.2 0.5q3.5 0.3 6.9 0.7c17.2 2 33.6 6.4 49 13q0.3 0.1 0.6 0.3c9.1 3.9 17.9 8.6 26.3 14q7.2 4.7 13.9 9.9c43.7 34.3 71.9 88.2 71.9 147.3z" /><path class="s1" d="m377.6 229.3c0 57.9-26.1 111.8-71.5 147.9l-2 1.5c-3.9 3-7.9 5.9-12 8.6c-8.5 5.5-17.6 10.4-26.9 14.6l-0.6 0.3c-16.4 7.1-33.6 11.9-51.2 14.2q-2.4 0.3-5.2 0.6c-5.5 0-11-0.3-16.4-0.8c-2.2-0.2-4.4-0.4-6.7-0.8c-13.3-1.7-26.2-4.9-38.4-9.3q-5.4-2-10.7-4.3c-0.3-0.1-0.5-0.2-0.8-0.3c-4.1-1.8-8.2-3.9-12.1-6c-4.7-2.5-9.3-5.2-13.7-8.1q-7-4.5-13.5-9.7q-1.2-1-2.3-1.9c-4.9-4-9.6-8.3-14-12.8q-1.7-1.6-3.3-3.3q-2.4-2.6-4.6-5.2c-8.7-10-16.3-20.9-22.7-32.6q-1-1.9-2-3.8q-0.8-1.5-1.5-3q-1.2-2.4-2.2-4.8q-0.9-2-1.8-4c-9.3-21.8-14.4-45.8-14.4-71c0-49.6 19.9-95.5 52.1-129.3q0 0 0 0c6.2-6.5 12.8-12.5 19.8-18c4.5-3.5 9.1-6.8 13.9-9.9q4.2-2.7 8.6-5.2q8.6-4.9 17.7-8.8q0.3-0.2 0.6-0.3q11.4-4.9 23.5-8.1q2.9-0.8 5.8-1.5c1.9-0.5 3.8-0.9 5.7-1.2q4.5-0.9 9.1-1.6q2.4-0.3 4.9-0.6q0.6-0.1 1.3-0.2c1.8-0.2 3.7-0.3 5.5-0.5q3-0.2 6-0.3c2.4-0.1 4.8-0.2 7.2-0.2q0.6 0 1.1 0h1.5q1.8 0.1 3.7 0.2q3.4 0.1 6.9 0.3q3.4 0.3 6.8 0.7c6.9 0.8 13.7 2 20.3 3.5c9.9 2.4 19.5 5.6 28.8 9.5q0.2 0.1 0.5 0.3q0.5 0.2 1 0.4q6.4 2.8 12.5 6.1q1.4 0.7 2.9 1.5q5.1 2.9 9.9 6l1.2 0.8c44.9 36.7 71.7 92.7 71.7 150.4z" /><path class="s2" d="m95.7 226.3c-0.5 31 5.9 62.4 18.5 90.8c12.2 27.9 31.2 54 54.8 75.3q0 0.1 0.1 0.2l0.4 0.3c3.1 2.8 6.3 5.6 10 8.5c2.3 1.9 4.8 3.8 7.2 5.5q1.6 1.2 3.2 2.4c0.5 0.4 0.9 1 0.9 1.7c0 1.1-0.8 1.9-1.8 2h-0.1q-0.1 0-0.1 0q-0.5 0-0.9-0.2c-3.6-1.8-7.7-4-11.8-6.5c-3.4-2-6.9-4.2-10.5-6.7q-0.2-0.1-0.3-0.2l-0.6-0.4c-27-18.9-49.4-44.9-64.7-75.2c-15.1-29.9-22.8-63.7-22.2-97.8c0.5-33.8 9.1-67.3 24.9-97c15.9-30 38.7-55.7 65.7-74.3l0.5-0.4q0.2-0.1 0.3-0.1c3.8-2.6 6.8-4.5 9.7-6.3c3.6-2.1 7.2-4.1 10.9-6c0.9-0.5 2-0.2 2.6 0.7c0.5 0.9 0.3 2-0.5 2.7l-1.5 1.1c-2.7 2.1-5.5 4.2-8.1 6.3c-3.8 3.1-6.7 5.5-9.3 7.9l-0.4 0.3q0 0.1-0.1 0.1c-23.6 21.2-42.9 47.1-55.9 74.9c-13.2 28.4-20.5 59.7-20.9 90.4z" /><path class="s2" d="m290.2 318.1c-15.4 32.8-38.7 60.7-67.4 80.9l-0.6 0.4q-0.1 0.1-0.3 0.1c-3.7 2.6-7 4.7-10.2 6.7c-3.3 1.9-7 3.9-11.6 6.3q-0.4 0.2-0.9 0.2c-0.6 0-1.3-0.3-1.7-0.9c-0.5-0.9-0.3-2.1 0.5-2.7q1.4-1 2.8-2.1c2.5-1.8 5-3.7 7.4-5.7c3.7-2.9 6.8-5.7 9.8-8.3l0.4-0.4q0.1-0.1 0.1-0.1c25.1-22.9 44.9-50.8 57.1-80.8c12.6-30.1 18-63.6 15.7-97c-2.2-32.4-12-65.1-28.5-94.4c-16.2-28.7-39.4-54.6-66.9-74.8c-0.9-0.7-1.1-1.8-0.5-2.7c0.5-0.9 1.7-1.2 2.6-0.7c30.7 15.8 57.4 40.3 77.2 70.7c19.5 29.9 31.3 64.7 33.9 100.6c2.8 36.5-3.7 72.7-18.9 104.7z" /><g style="opacity: .3;mix-blend-mode: multiply"><path class="s2" d="m377.6 229.3c0 57.9-26.1 111.8-71.5 147.9l-2 1.5c-3.9 3-7.9 5.9-12 8.6c-8.5 5.5-17.6 10.4-26.9 14.6l-0.6 0.3c-16.4 7.1-33.6 11.9-51.2 14.2q-2.4 0.3-5.2 0.6c-5.5 0-11-0.3-16.4-0.8c-2.2-0.2-4.4-0.4-6.7-0.8c-13.3-1.7-26.2-4.9-38.4-9.3q-5.4-2-10.7-4.3c-0.3-0.1-0.5-0.2-0.8-0.3c-4.1-1.8-8.2-3.9-12.1-6c-4.7-2.5-9.3-5.2-13.7-8.1q-7-4.5-13.5-9.7q-1.2-1-2.3-1.9c-4.9-4-9.6-8.3-14-12.8q-1.7-1.6-3.3-3.3q-2.4-2.6-4.6-5.2c-8.7-10-16.3-20.9-22.7-32.6q-1-1.9-2-3.8q-0.8-1.5-1.5-3q-1.2-2.4-2.2-4.8q-0.9-2-1.8-4c5.2 7.2 10.9 13.9 17 20.1q7.3 7.4 15.4 13.9q6.2 4.8 12.7 9.1q6.3 4.1 12.9 7.6q5.5 3.1 11.4 5.6q0.4 0.2 0.7 0.3c6.6 2.9 13.5 5.4 20.6 7.5q9.4 2.7 19.3 4.4q3.2 0.5 6.4 1q3.1 0.4 6.3 0.7q7.9 0.7 15.9 0.8q8.1-0.1 16-0.8q3.2-0.3 6.3-0.7c14.7-1.9 28.8-5.7 42-11.1q2.2-0.9 4.3-1.8q0.3-0.1 0.7-0.3c7.4-3.3 14.6-7.1 21.5-11.4q1.4-0.9 2.8-1.8q6.6-4.3 12.7-9.1c39.5-31.4 64.8-79.8 64.8-134.1c0-26.6-6.1-52-16.9-74.9c-7.9-16.7-18.3-32-30.9-45.4q-9.2-9.9-19.9-18.3q-2-1.6-4.1-3.1q6.4 2.8 12.5 6.1q1.4 0.7 2.9 1.5q5.1 2.9 9.9 6l1.2 0.8c44.9 36.7 71.7 92.7 71.7 150.4z" /></g><path fill-rule="evenodd" class="s3" d="m377.6 229.3c0 57.9-26.1 111.8-71.5 147.9l-2 1.5c-3.9 3-7.9 5.9-12 8.6c-8.5 5.5-17.6 10.4-26.9 14.6l-0.6 0.3c-16.4 7.1-33.6 11.9-51.2 14.2q-2.4 0.3-5.2 0.6q-0.9 0.1-1.7 0.2c-2.6 0.2-4.9 0.4-7 0.5c-3.3 0.2-7 0.3-10.7 0.3c-6.2 0-11.9-0.3-17.6-0.8q-3.7-0.4-7-0.8c-17.5-2.3-34.7-7.1-51-14.2l-0.8-0.4c-9.1-4-18.1-8.9-26.8-14.5c-4-2.7-8.1-5.6-12-8.6l-2-1.5c-45.4-36.1-71.4-90-71.4-147.9c0-59 27.8-116.1 74.5-152.8l2-1.4c4.1-3.2 8.2-6.1 12.4-8.8c8.8-5.7 17.9-10.6 27.4-14.6l0.4-0.2c16.4-7.1 33.6-11.6 51.2-13.7c2.4-0.2 4.8-0.5 7.1-0.6q4.1-0.4 8.5-0.5c2.4-0.1 4.8-0.1 7.2 0c2 0 4.2 0.1 6.6 0.2c1.6 0 3.4 0.1 5.1 0.3q3.2 0.2 7 0.6q0.8 0.1 1.5 0.2c17.1 2.1 33.7 6.6 49.6 13.4l0.6 0.3c9.3 4 18.5 8.9 27.3 14.6c4.9 3.2 9.8 6.6 14.4 10.2q1.5 1.2 2.9 2.4c44.9 36.7 71.7 92.7 71.7 150.4zm-78.3 135.4c40.9-33.4 64.3-82.6 64.3-135.4c0-34.8-10.5-69-29.3-98c-10.7-16.5-24.2-31.4-39.9-43.8c-4.3-3.3-8.8-6.5-13.4-9.5c-8.1-5.2-16.6-9.8-25.3-13.5l-0.6-0.3c-12.4-5.3-25.4-9.1-38.8-11.3q-1.3-0.3-2.7-0.4c-1.8-0.3-3.7-0.6-5.5-0.8q-2.5-0.2-4.7-0.5q-1 0-1.9-0.1c-1.6-0.1-3.1-0.2-4.7-0.3q-3.3-0.1-6.2-0.2h-0.5c-0.5 0-0.9 0-1.3 0q-2 0-4 0.1q-4.4 0.1-8.6 0.4q-1.3 0.1-2.6 0.2q-0.1 0-0.2 0.1q-1.8 0.1-3.7 0.3c-16.3 1.9-32.1 6.1-47.2 12.6l-0.4 0.2c-8.8 3.7-17.3 8.3-25.4 13.5c-4.5 2.9-8.8 6-13.3 9.5l-1.5 1.1c-42.5 34.1-67.8 86.6-67.8 140.7c0 53.1 23.7 102.5 64.9 135.9l1.4 1c4.1 3.4 8.5 6.5 12.9 9.4q0.1 0.1 0.3 0.2c7.9 5.1 16.2 9.6 24.5 13.3l0.9 0.4c14.9 6.5 30.8 10.9 47.1 13c1.5 0.2 3.1 0.4 4.7 0.6q0.8 0.1 1.7 0.2c3.4 0.3 6.7 0.5 10.2 0.6q3 0.2 6.1 0.1q5.2 0 10-0.3c2-0.1 3.9-0.2 6.3-0.4q0.4-0.1 0.8-0.1c2.1-0.2 3.9-0.4 5.7-0.7q3.8-0.4 7.6-1.1c13.6-2.4 27-6.4 39.7-12l0.6-0.3c8.7-3.8 17.1-8.3 24.9-13.5c4.4-2.9 8.8-6 13-9.4z" /><path class="s3" d="m279.8 11.6c-0.8 3.5-4.1 5.8-7.5 5.4h-0.1c-7.7-0.8-15.4-0.9-22.7 0c-7.4 0.8-14.4 2.7-20.6 5.7c-6.1 3-11.4 7.1-15.5 12.2c-1.8 2.1-3.3 4.5-4.6 6.9c3.9 1.8 6.4 4.3 6.4 7c0 5.4-9.5 9.7-21.2 9.7c-11.7 0-21.2-4.3-21.2-9.7c0-3.3 3.6-6.2 9-8q0.1-0.1 0.1-0.2q0.8-1.8 1.6-3.5q1.8-3.4 3.8-6.5q4.2-6.2 9.5-11.4c7.1-6.9 15.7-11.9 24.7-15c9-3.1 18.2-4.2 27.1-4.1c9 0 17.6 1.3 26 3.2c3.7 0.8 6.1 4.6 5.2 8.3z" /></svg>