<svg version="1.2" xmlns="http://www.w3.org/2000/svg" viewBox="0 0 417 417" width="417" height="417"><style>.s0{fill:#febd01}.s1{fill:#fffac2}.s2{fill:#231f20}.s3{fill:#fddd0c}.s4{fill:#f7f5f6}.s5{opacity: .1;mix-blend-mode: multiply;fill:#000000}</style><path class="s0" d="m407.1 208.3c0 109.8-89 198.8-198.8 198.8c-109.8 0-198.9-89-198.9-198.8c0-109.9 89.1-198.9 198.9-198.9c109.8 0 198.8 89 198.8 198.9z" /><path class="s1" d="m386.9 208.3c0 98.6-80 178.6-178.6 178.6c-98.7 0-178.6-80-178.6-178.6c0-98.7 79.9-178.6 178.6-178.6c98.6 0 178.6 79.9 178.6 178.6z" /><path fill-rule="evenodd" class="s2" d="m208.3 416.5c-58.7 0-114.9-24.9-154.4-68.4c-34.7-38.4-53.9-88-53.9-139.8c0-114.9 93.4-208.3 208.3-208.3c29.7 0 58.4 6.1 85.3 18.2c74.7 33.6 122.9 108.2 122.9 190.1c0 114.8-93.4 208.2-208.2 208.2zm0-400.6c-106.1 0-192.4 86.3-192.4 192.4c0 47.8 17.7 93.7 49.8 129.2c36.4 40.1 88.4 63.2 142.6 63.2c106.1 0 192.4-86.3 192.4-192.4c0-75.7-44.6-144.6-113.6-175.6c-24.8-11.2-51.3-16.8-78.8-16.8z" /><path class="s3" d="m208.3 202z" /><path class="s3" d="m208.3 202l-91.6-91.6c-9.9-9.9-8.3-26.4 3.4-34.2c18.4-12.4 39.7-21 62.6-24.7c13.4-2.2 25.6 8.3 25.6 21.9v128.6z" /><path class="s3" d="m208.3 202z" /><path class="s3" d="m299.9 110.4l-91.6 91.6v-128.6c0-13.6 12.1-24.1 25.6-21.9c22.9 3.7 44.1 12.3 62.6 24.7c11.7 7.8 13.3 24.3 3.4 34.2z" /><path class="s3" d="m341.9 202h-133.6l92.6-92.7c9.4-9.3 25-8.6 33.1 1.9c14.4 18.6 24.7 40.4 29.7 64.2c2.9 13.7-7.8 26.6-21.8 26.6z" /><path class="s3" d="m341.4 297.8c-7.7 11.6-24.2 13.1-34.1 3.2l-99-99h134.8c13.4 0 23.7 11.7 22 25c-2.6 20.1-8.9 48.5-23.7 70.8z" /><path class="s3" d="m208.3 202v141.1c0 13.7-12.3 24.2-25.9 21.9c-26.4-4.3-50.6-15.2-70.9-30.8c-10.6-8.2-11.6-23.8-2.1-33.3l98.9-98.9z" /><path class="s3" d="m115.7 109.3l92.6 92.7h-133.6c-14.1 0-24.7-12.9-21.8-26.6c5-23.8 15.3-45.6 29.6-64.2c8.2-10.5 23.8-11.2 33.2-1.9z" /><path class="s3" d="m208.3 343.1v-141.1l98.9 98.9c9.5 9.5 8.5 25.1-2.1 33.3c-20.3 15.6-44.5 26.5-70.9 30.8c-13.6 2.3-25.9-8.2-25.9-21.9z" /><path class="s3" d="m208.3 202l-98.7 98.6c-9.7 9.8-26.1 8.5-33.9-2.9c-16.4-23.9-22.6-51.5-24.9-70.9c-1.6-13.2 8.8-24.8 22.1-24.8h135.4z" /><path fill-rule="evenodd" class="s4" d="m208.3 209.9c-2.1 0-4.1-0.8-5.6-2.3l-91.6-91.6c-6.4-6.4-9.6-15.3-8.7-24.3c0.9-9 5.7-17.1 13.2-22.1c20-13.4 42.1-22.1 65.8-26c8.6-1.4 17.5 1.1 24.2 6.8c6.7 5.8 10.6 14.2 10.6 23v128.6c0 3.2-1.9 6.1-4.9 7.3q-1.5 0.6-3 0.6zm-22.1-150.8q-1.1 0-2.3 0.2c-21.4 3.5-41.4 11.4-59.4 23.5c-3.6 2.4-5.9 6.2-6.3 10.5c-0.4 4.3 1.1 8.4 4.1 11.5l78.1 78v-109.4c0-4.2-1.9-8.2-5.1-10.9c-2.6-2.2-5.8-3.4-9.1-3.4z" /><path fill-rule="evenodd" class="s4" d="m208.3 209.9q-1.6 0-3-0.6c-3-1.2-4.9-4.1-4.9-7.3v-128.6c0-8.8 3.8-17.2 10.6-23c6.7-5.7 15.5-8.2 24.2-6.8c23.6 3.9 45.7 12.6 65.7 26c7.6 5 12.4 13.1 13.3 22.1c0.8 9-2.3 17.9-8.7 24.3l-91.6 91.6c-1.5 1.5-3.6 2.3-5.6 2.3zm22-150.8c-3.3 0-6.4 1.2-9 3.4c-3.2 2.7-5.1 6.7-5.1 10.9v109.4l78.1-78c3-3.1 4.5-7.2 4.1-11.5c-0.4-4.3-2.7-8.1-6.3-10.5c-18.1-12.1-38.1-20-59.5-23.5q-1.1-0.2-2.3-0.2z" /><path fill-rule="evenodd" class="s4" d="m341.9 209.9h-133.6c-3.2 0-6.1-1.9-7.3-4.9c-1.3-3-0.6-6.4 1.7-8.6l92.6-92.7c6.2-6.1 14.7-9.3 23.4-8.8c8.5 0.6 16.4 4.8 21.6 11.5c15.3 19.7 26 43.1 31.2 67.4c1.8 8.8-0.4 17.9-6.1 24.9c-5.8 7.1-14.3 11.2-23.5 11.2zm-114.5-15.8h114.5c4.4 0 8.5-2 11.2-5.4c2.7-3.3 3.7-7.5 2.9-11.6q0 0 0 0c-4.7-22.1-14.4-43.1-28.3-61c-2.4-3.2-6-5.1-10.1-5.3c-4.1-0.3-8.2 1.2-11.1 4.1z" /><path fill-rule="evenodd" class="s4" d="m323.1 315.5c-8 0-15.7-3.2-21.4-8.9l-99-99c-2.3-2.3-3-5.7-1.7-8.7c1.2-2.9 4.1-4.8 7.3-4.8h134.8c8.6 0 16.9 3.7 22.6 10.2c5.7 6.5 8.4 15.2 7.2 23.8c-2.7 20.7-9.2 50.5-24.9 74c-5 7.5-12.9 12.3-21.9 13.2q-1.5 0.2-3 0.2zm-95.7-105.6l85.5 85.5c3.1 3.1 7.3 4.6 11.6 4.1c4.2-0.4 8-2.6 10.3-6.1c14-21.1 19.9-48.3 22.4-67.4c0.6-4.1-0.6-8.1-3.4-11.2c-2.7-3.1-6.6-4.9-10.7-4.9z" /><path fill-rule="evenodd" class="s4" d="m186 373.3q-2.4 0-4.9-0.4c-26.9-4.5-52.7-15.7-74.5-32.4c-6.8-5.3-11.1-13.3-11.6-21.9c-0.6-8.7 2.6-17.2 8.8-23.3l98.9-98.9c2.2-2.3 5.7-3 8.6-1.7c3 1.2 4.9 4.1 4.9 7.3v141.1c0 8.9-3.9 17.2-10.6 23c-5.5 4.6-12.5 7.2-19.6 7.2zm14.4-152.2l-85.4 85.4c-2.9 2.9-4.5 6.9-4.2 11.1c0.3 4.1 2.2 7.8 5.5 10.3c19.7 15.2 43 25.3 67.4 29.3c4.2 0.7 8.4-0.5 11.6-3.2c3.2-2.7 5.1-6.7 5.1-10.9z" /><path fill-rule="evenodd" class="s4" d="m208.3 209.9h-133.6c-9.2 0-17.8-4.1-23.5-11.2c-5.7-7-7.9-16.1-6.1-24.9c5.1-24.3 15.9-47.7 31.2-67.4c5.2-6.7 13.1-10.9 21.6-11.5c8.7-0.5 17.2 2.7 23.4 8.8l92.6 92.7c2.3 2.2 2.9 5.6 1.7 8.6c-1.2 3-4.1 4.9-7.3 4.9zm-108.5-99.2q-0.4 0-0.9 0.1c-4 0.2-7.6 2.1-10.1 5.3c-13.8 17.9-23.6 38.9-28.2 61c-0.9 4.1 0.2 8.3 2.9 11.6c2.7 3.4 6.8 5.4 11.2 5.4h114.5l-79.1-79.2c-2.8-2.7-6.4-4.2-10.3-4.2z" /><path fill-rule="evenodd" class="s4" d="m230.5 373.3c-7.1 0-14-2.6-19.5-7.2c-6.8-5.8-10.6-14.1-10.6-23v-141.1c0-3.2 1.9-6.1 4.9-7.3c2.9-1.3 6.3-0.6 8.6 1.7l98.9 98.9c6.1 6.1 9.3 14.6 8.8 23.3c-0.6 8.6-4.8 16.6-11.7 21.9c-21.7 16.7-47.5 27.9-74.5 32.4q-2.4 0.4-4.9 0.4zm-14.3-152.2v122c0 4.2 1.8 8.2 5 10.9c3.3 2.7 7.5 3.9 11.7 3.2c24.4-4 47.7-14.1 67.4-29.3c3.2-2.5 5.2-6.2 5.5-10.3c0.2-4.2-1.3-8.2-4.2-11.1z" /><path fill-rule="evenodd" class="s4" d="m93.8 315.1q-1.3 0-2.7-0.1c-8.9-0.8-16.9-5.5-21.9-12.8c-17.5-25.3-23.9-54.5-26.3-74.5c-1-8.5 1.7-17.1 7.4-23.5c5.8-6.5 14-10.1 22.6-10.1h135.4c3.2 0 6.1 1.9 7.3 4.8c1.2 3 0.6 6.4-1.7 8.7l-98.7 98.6c-5.7 5.8-13.4 8.9-21.4 8.9zm-20.9-105.2c-4.2 0-8 1.7-10.7 4.8c-2.8 3.1-4 7.1-3.5 11.2c2.1 18.2 7.9 44.7 23.5 67.3c2.4 3.4 6.1 5.6 10.3 6c4.3 0.4 8.5-1.1 11.5-4.2l85.2-85.1z" /><path class="s5" d="m408.6 208.3c0 110.6-89.7 200.3-200.3 200.3c-58.9 0-111.8-25.4-148.5-65.8q1.7 0.8 3.4 1.5c15 6.4 31 11 47.6 13.6q15.2 2.4 31.1 2.4q9 0 17.7-0.8c16.6-1.4 32.6-4.9 47.8-10.1q0.8-0.3 1.6-0.6c33.9-12 63.5-32.9 86.2-59.9c20.7-24.6 35.6-54.3 42.6-86.9c2.9-13.6 4.4-27.6 4.4-42c0-15.3-1.7-30.1-4.9-44.4c-3.7-16.2-9.3-31.7-16.6-46.2c-7.6-14.9-17-28.7-27.9-41.2q-1.2-1.4-2.4-2.7c69.7 31.3 118.2 101.4 118.2 182.8z" /></svg>