<svg version="1.2" xmlns="http://www.w3.org/2000/svg" viewBox="0 0 295 434" width="295" height="434"><style>.s0{fill:#5da901}.s1{fill:#c8d15a}.s2{fill:#fdee8f}.s3{fill:#231f20}.s4{opacity: .1;mix-blend-mode: multiply;fill:#000000}.s5{fill:#c16238}.s6{fill:#d17242}</style><path class="s0" d="m273.1 340.6c-18.5 50.4-65.5 85.9-118.2 90.1h-0.1q-1.7-0.1-3.5-0.3q-1.8-0.2-3.6-0.4q-1.7-0.3-3.5-0.6q-1.5-0.2-3.1-0.5q-3.9-0.7-7.8-1.7q-1.5-0.4-3-0.8q-1.7-0.4-3.4-1q-8.5-2.5-16.6-6.2q-1.4-0.6-2.8-1.3q-0.5-0.2-0.9-0.4q-1.3-0.6-2.7-1.3q-1.5-0.8-3.1-1.7c-29-15.8-52.4-41.8-64.1-73.9c-22.4-61.2-5.1-135.3 27.6-189.2c9.1-16.2 17.9-32.8 25.9-49.6c9.6-20.2 9.6-42.9 18.9-63.1c8.6-18.4 26.2-31.1 45.8-34.6q1.6 0.3 3.1 0.7c18.4 4.2 34.6 16.5 42.6 33.9c9.4 20.2 9.3 42.9 19 63.1c7.9 16.8 16.7 33.4 25.9 49.6c32.7 53.9 49.9 128 27.6 189.2z" /><path class="s1" d="m262.9 331.5c-16.5 44.2-60.9 77.2-108.6 79.3c-51.3 2.3-100.4-32-118.1-79.3c-21.4-57.4-4.9-126.9 26.5-177.4c8.8-15.2 17.2-30.9 24.8-46.5c9.3-19.1 9.2-40.4 18.2-59.3c10.7-22.5 38-36.2 62.3-26.6c34.2 13.6 30 57.8 43.6 85.9c7.6 15.6 16 31.3 24.8 46.5c31.4 50.5 47.9 120 26.5 177.4z" /><path class="s2" d="m241.5 312.2c-14.5 38.8-51.6 66.1-93.1 69.4q-1.4-0.1-2.8-0.3q-1.4-0.1-2.8-0.3q-1.4-0.2-2.8-0.4q-1.2-0.2-2.4-0.4q-3.1-0.6-6.2-1.3q-1.1-0.3-2.3-0.6q-1.4-0.4-2.7-0.8q-6.7-2-13.1-4.8q-1.1-0.4-2.2-1q-0.4-0.1-0.7-0.3q-1-0.5-2.1-1q-1.2-0.6-2.4-1.3c-22.9-12.1-41.3-32.2-50.5-56.9c-17.6-47.1-4.1-104.1 21.7-145.6c7.2-12.4 14.1-25.3 20.4-38.1c7.6-15.6 7.5-33.1 14.9-48.6c6.3-13.2 20.7-23.7 35.8-23.8c15.4 0 30 10.5 36.3 23.8c7.3 15.5 7.3 33 14.9 48.6c6.3 12.8 13.2 25.7 20.4 38.1c25.7 41.5 39.3 98.5 21.7 145.6z" /><path fill-rule="evenodd" class="s3" d="m147.5 433.9c-36.9 0-72.3-14-99.6-39.3c-16.2-15.1-28.8-33.8-36.4-54.1c-25.1-67.1-1.9-142.8 28.2-191.4c9.6-16.6 18.3-32.7 25.7-48c4.5-9.3 6.8-19.2 9.1-29.8c2.4-10.5 4.9-21.5 9.9-31.9c11-23.3 36.4-38.9 63.1-38.9c3.9 0 7.9 0.4 11.9 1c1.2 0.3 2.4 0.5 3.5 0.8c21.1 4.7 38.9 18.6 47.6 37.1c5 10.4 7.5 21.4 9.9 31.9c2.3 10.6 4.6 20.5 9.1 29.8c4.5 9.3 9.3 18.6 14.3 27.7l1.3 1.4v1c3 5.4 6.3 11.3 10.1 18c30.1 48.5 53.3 124.3 28.2 191.3c-19.4 52-68.4 88.4-124.6 92.9h-0.3c-3.7 0.3-7.4 0.5-11 0.5zm0-419.2c-21.4 0-41.6 12.4-50.3 30.8c-4.3 9-6.5 18.7-8.8 29c-2.4 10.8-5 22.1-10.2 32.8c-7.6 15.6-16.5 32.1-26.3 49.1l-0.1 0.1c-28.3 45.7-50.3 116.7-27 179c6.8 18.2 18.1 35.1 32.8 48.6c24.7 23 56.6 35.6 89.9 35.6c3.3 0 6.7-0.2 10.1-0.5h0.4c50.6-4.1 94.6-36.9 112.1-83.7c23.3-62.2 1.3-133.3-27-179l-0.1-0.1c-4.3-7.4-8-14-11.2-20l-0.9-1.6c-4.9-9.1-9.7-18.3-14.2-27.4c-5.2-10.8-7.8-22.1-10.2-32.9c-2.3-10.3-4.5-20-8.8-29c-6.9-14.6-21.1-25.6-37.8-29.4q-1.5-0.3-2.9-0.6c-3.2-0.5-6.4-0.8-9.5-0.8z" /><path class="s4" d="m211.5 296.7c-3.4 34.9-30.4 49.3-57.4 49.2c-21.5 0-43-9.1-52.5-30.5c-2.5-5.4-4.1-11.6-4.8-18.7c-4.6-47.7 25.4-76.9 44.2-90.2c7.8-5.7 18.4-5.7 26.3 0c3.4 2.4 7.1 5.3 11 8.7c17.5 15.7 37 42.4 33.2 81.5z" /><path class="s5" d="m207.2 290.3c-3.4 34.9-30.4 49.2-57.4 49.2c-21.4 0-43-9.1-52.5-30.5c-2.4-5.4-4.1-11.6-4.8-18.7c-4.6-47.7 25.4-76.9 44.2-90.3c7.8-5.6 18.5-5.6 26.3 0c3.4 2.5 7.2 5.4 11 8.8c17.5 15.7 37 42.4 33.2 81.5z" /><path class="s6" d="m188.7 268.9c-3.4 34.9-30.4 49.3-57.4 49.2c-12 0-24.1-2.8-34-9.1c-2.4-5.4-4.1-11.6-4.8-18.7c-4.6-47.7 25.4-76.9 44.2-90.3c7.8-5.6 18.5-5.6 26.3 0c3.4 2.5 7.2 5.4 11 8.8c10 15.2 17.1 35.1 14.7 60.1z" /><path class="s4" d="m276.8 338c-18.5 49.4-65.7 84.1-118.5 88.3h-0.1q-5.3 0.5-10.7 0.5c-35.7 0-69.5-14.1-94.8-37.5c275.1 28.8 192.3-235.2 185.3-256.3c3.6 6.7 7.3 13.3 11.1 19.8c32.8 52.8 50.1 125.3 27.7 185.2z" /></svg>