<svg version="1.2" xmlns="http://www.w3.org/2000/svg" viewBox="0 0 407 398" width="407" height="398"><style>.s0{fill:#7daa13}.s1{fill:#c4f27c}.s2{fill:#231f20}.s3{fill:#fdc031}.s4{fill:#f9980b}.s5{fill:#ffffff}.s6{fill:#000000}.s7{opacity: .1;mix-blend-mode: multiply;fill:#000000}</style><path class="s0" d="m224.4 388.5c-87.9 9.7-174-41.8-204.6-128.7c-31.6-89.7 6.4-187 85.8-232.9l3.4 6.2l42.6 78.1q-35.9 22.1-24.7 48.6q-15.8 36 6.2 66.2q-4.4 41.5 27.5 51.1q13.5 27.6 45.8 27.6l16.2 75.5z" /><path class="s1" d="m217.3 384.7c-80.3 0.1-155.4-49.9-183.6-129.9c-27.7-78.7-1.7-163.4 58.8-213.9l-4.9 170.2z" /><path fill-rule="evenodd" class="s2" d="m203.1 397.6c-85 0-162.2-54-190.8-135.2c-15.4-43.6-15.3-91.5 0.1-134.9c15.2-42.8 44.6-79.6 82.9-103.6c3.4-2.2 7.6-2.8 11.5-1.8c3.9 1 7.2 3.6 9.2 7.2l46.1 84.7l-6.4 3.9c-0.3 0.2-29.9 19-21.5 38.8l1.3 3.2l-1.4 3.1c-0.1 0.3-13.6 32.3 5.4 58.3l1.8 2.5l-0.3 3c-0.1 1.4-3.2 35.1 21.9 42.7l3.3 1l1.5 3.1c0.5 0.9 12 23.1 38.7 23.2h6.5l17.6 82.6c0.9 4.1 0 8.5-2.6 11.9c-2.5 3.4-6.4 5.5-10.7 5.8q-7.1 0.5-14.1 0.5zm-100.4-359.6c-72.3 46.1-104 138-75.5 219.1c27.7 78.6 104.7 129.5 187.6 124.3l-14.8-69.1c-26.2-2.7-40.2-21.2-44.8-28.7c-25.7-9.8-31.1-38.7-30.2-55.4c-18.6-27.8-10.1-58.6-6.6-68.5c-7.6-23.4 12.2-42.6 22.9-50.9z" /><path class="s3" d="m222.6 380.2c-77-3.7-147.8-53.1-175-130.3c-28.2-80.1-1.1-166.3 61.4-216.8l42.6 78.1q-0.5 0.3-1.3 0.8c-6.2 4.2-33.4 24.3-23.4 47.8q-15.8 36 6.2 66.2q-4.4 41.5 27.5 51.1q13.5 27.6 45.8 27.6l1.4 6.5z" /><path class="s4" d="m207.8 311.2c-34.6 2-88.8-17.1-102.8-85.3q-19.6-95.1 42.9-118q0.9 1.5 2.4 4.1c-6.2 4.2-33.4 24.3-23.4 47.8q-15.8 36 6.2 66.2q-4.4 41.5 27.5 51.1q13.5 27.6 45.8 27.6z" /><path class="s5" d="m106.8 40.5q-136.8 148.4 18.9 303.5q-58.4-27.3-78.4-101.3c-20-74 6-183.3 59.5-202.2z" /><g style="opacity: .1;mix-blend-mode: multiply"><path class="s6" d="m218.8 378.3q-54.8 29.8-149.1-39.8q102 49.5 139.6-31.7z" /></g><path fill-rule="evenodd" class="s2" d="m208 386.8q-1.3 0-2.6-0.2c-76.3-10.1-139.7-61.4-165.2-134c-26.7-75.8-6.2-160.4 52.3-215.6c4.4-4.1 10.3-5.9 16.3-5c6 1 11.2 4.6 14.1 10l30.8 56.6c4.5 8.1 2.5 18.3-4.6 24.3c-8.1 6.7-20.7 20-14.9 33.8l1.3 3.2l-1.4 3.1c-0.1 0.3-13.6 32.3 5.4 58.3l1.8 2.5l-0.3 3c-0.1 1.4-3.2 35.1 21.9 42.7l3.3 1l1.5 3.1c0.4 0.8 10.1 19.5 32.2 22.7c7.9 1.1 14.4 7.3 16.1 15.3l11.1 51.6c1.3 6.2-0.5 12.6-4.8 17.3c-3.7 4-8.9 6.3-14.3 6.3zm-102.3-339.2c-0.7 0-1.5 0.2-2.3 0.9c-54 50.9-72.9 128.9-48.3 198.8c23.6 66.9 82 114.3 152.4 123.6c1.7 0.2 2.7-0.7 3.2-1.2c0.5-0.5 1.2-1.6 0.9-3.2l-11.1-51.6c-0.3-1.5-1.5-2.7-2.9-2.9c-24.7-3.6-37.9-21.2-42.4-28.4c-25.7-9.8-31.1-38.7-30.2-55.4c-18.6-27.9-10.1-58.7-6.6-68.5c-5.2-16.2 2-33.5 20.5-49c1.4-1.1 1.7-3 0.9-4.5l-30.8-56.7c-0.8-1.4-2.2-1.8-2.7-1.8q-0.3-0.1-0.6-0.1z" /><path class="s0" d="m397.3 227.3q-0.2 1.6-0.4 3.1q-0.8 6.1-2.1 12.1q-1.3 6-2.9 11.8q-0.4 1.6-0.9 3.2q-0.9 2.8-1.8 5.6q-2.4 7.5-5.5 14.9q-1 2.4-2.1 4.8q-2.6 5.7-5.5 11.3q-1.4 2.6-2.9 5.1q-0.7 1.4-1.5 2.7c-8.8 14.8-19.6 28.5-32.1 40.7q-1.9 1.7-3.8 3.5q-1.3 1.2-2.7 2.4q-1.2 1.1-2.4 2.1q-1.3 1.2-2.7 2.3q-3.6 2.9-7.3 5.7c-0.9 0.7-1.8 1.3-2.8 2q-5.1 3.7-10.4 7q-2.9 1.8-5.9 3.5l-3.4-6.2l-6.9-12.7l-30.7-56.6l-3.7-6.9l-1.1-1.9q0.5-0.3 1.3-0.9c1.3-0.9 3.6-2.4 6.2-4.7q0.1 0 0.1 0q0.4-0.4 0.8-0.7c0 0 0.1 0 0.1-0.1q0.6-0.5 1.2-1.1q0.3-0.2 0.6-0.5c0.2-0.1 0.3-0.2 0.4-0.4q0.2-0.1 0.3-0.2q0.3-0.2 0.5-0.5q0.1-0.1 0.2-0.2q0.7-0.7 1.5-1.4q0.7-0.7 1.4-1.5q0.1-0.1 0.2-0.2q0.4-0.5 0.8-0.9c0.2-0.2 0.3-0.3 0.5-0.5q0.2-0.2 0.3-0.4q0.4-0.5 0.8-1q0.5-0.5 1-1.1q0.1-0.2 0.2-0.3q0.4-0.6 0.8-1.1q0.5-0.6 0.9-1.2q0.1-0.1 0.2-0.2q0.7-1.1 1.3-2.2q0.2-0.1 0.2-0.3q1.1-1.7 1.9-3.4q0.4-0.8 0.7-1.5q0-0.1 0.1-0.1q0.3-0.7 0.5-1.5q0.1-0.1 0.1-0.2q0.1-0.1 0.1-0.2q0 0 0 0q0.1-0.4 0.3-0.8c0-0.2 0-0.3 0.1-0.4q0-0.1 0.1-0.2q0-0.3 0.1-0.6q0.1-0.3 0.1-0.4q0.1-0.2 0.2-0.5q0.1-0.3 0.1-0.7q0.1-0.3 0.2-0.6q0-0.1 0-0.2q0.1-0.6 0.2-1.1q0-0.2 0.1-0.3q0-0.1 0-0.2q0-0.3 0-0.5q0.1-0.3 0.1-0.6c0-0.2 0-0.3 0.1-0.5v-0.1q0-0.3 0-0.5q0-0.8 0-1.5c0-3.4-0.6-6.9-2.1-10.4q15.9-35.9-6.1-66.2q4.5-41.5-27.4-51.2q-1.4-2.8-4.2-6.6c-0.4-0.5-0.8-1-1.3-1.6q-0.7-0.8-1.5-1.7c-0.4-0.4-0.8-0.9-1.2-1.3q-0.5-0.6-1.2-1.3q-0.7-0.6-1.4-1.3c-0.4-0.4-0.8-0.7-1.2-1.1q-0.2-0.1-0.3-0.3q-0.7-0.6-1.4-1.1q-0.8-0.7-1.7-1.3q-0.8-0.6-1.7-1.3q-0.9-0.6-1.8-1.1q-0.9-0.6-1.9-1.2q-2.1-1.1-4.3-2.1q-1-0.5-2-0.9q-0.9-0.3-1.8-0.6q-0.6-0.3-1.3-0.5q-0.8-0.2-1.7-0.5q-0.1 0-0.2 0q-0.9-0.3-1.9-0.5q-0.4-0.1-1-0.2q-0.8-0.2-1.7-0.4q-0.4-0.1-0.7-0.1q-4-0.6-8.4-0.6l-1.3-6.6l-0.5-2l-10.9-51.6l-3.3-15.4l-0.2-1l-1.5-7.3q3.6-0.4 7.3-0.6q1.1-0.1 2.2-0.2q0.8 0 1.6-0.1q2-0.1 4.1-0.1q0.5-0.1 0.9 0q2.4-0.1 4.7-0.1c51.5 0 100.8 20.6 137 56.4q1.3 1.3 2.6 2.7q2.6 2.7 5.1 5.4q3.8 4.2 7.3 8.6q3.5 4.4 6.8 9.1q2.2 3.1 4.3 6.3q1 1.6 2 3.2c1.4 2.2 2.7 4.4 3.9 6.6q2.9 5 5.5 10.2q2.3 4.8 4.4 9.8q2.5 5.9 4.7 11.9q0.7 2 1.3 4q2 6 3.5 12c6.3 24.4 7.6 49.1 4.5 72.9z" /><path class="s1" d="m190.7 13.1c80.2 0.1 155.3 50.2 183.3 130.2c27.6 78.9 1.4 163.5-59.3 213.9l5.3-170.2z" /><path fill-rule="evenodd" class="s2" d="m304.2 376.4q-2.1 0-4.1-0.6c-3.8-1.1-7-3.6-8.8-7.1l-46.1-84.9l6.6-3.9c0 0 0.3-0.2 0.8-0.5c1.9-1.3 3.7-2.6 5.4-4.1l1.3-1q0.4-0.4 0.9-0.9l1-0.8q0.1-0.1 0.1-0.1l0.9-0.8q0.6-0.6 1.1-1.2q0.7-0.6 1.3-1.3l0.2-0.2q0.3-0.3 0.6-0.7l1.7-1.8c0.1-0.3 0.4-0.6 0.7-0.9l0.4-0.6q0.2-0.2 0.4-0.5c0.3-0.4 0.5-0.8 0.8-1.1l0.2-0.3q0.5-0.7 0.9-1.4l0.4-0.7q0.9-1.4 1.4-2.6l0.2-0.3q0.2-0.3 0.3-0.7l0.3-0.6v-1.6l0.9-1l0.8-4.7q0-0.5 0-0.9c0-2.5-0.5-4.9-1.5-7.3l-1.3-3.2l1.4-3.1c0.1-0.3 13.7-32.3-5.3-58.3l-1.8-2.5l0.3-3.1c0.2-1.4 3.3-35-21.8-42.7l-3.3-1l-1.5-3.1q-1.1-2.2-3.4-5.3l-0.3-0.3q-0.3-0.4-0.7-0.9l-0.3-0.3q-0.5-0.6-1.1-1.3l-1.2-1.3q-0.3-0.4-0.8-0.8l-0.3-0.3q-0.4-0.5-0.9-0.9l-0.6-0.5q-0.3-0.3-0.6-0.6l-1.4-1.2c-0.4-0.3-0.9-0.7-1.4-1.1l-0.2-0.1q-0.6-0.5-1.2-0.9q-0.8-0.5-1.6-1.1c-0.5-0.3-1.1-0.6-1.7-0.9c-1.1-0.6-2.3-1.2-3.5-1.8l-0.3-0.1q-0.6-0.3-1.3-0.6l-0.3-0.1q-0.6-0.2-1.3-0.4l-1.1-0.4q-0.6-0.2-1.3-0.4l-0.4-0.1q-0.6-0.2-1.3-0.3l-1.1-0.3q-0.7-0.1-1.4-0.3l-0.6-0.1c-2.3-0.3-4.7-0.5-7.1-0.5h-6.4l-17.5-82.5c0-0.1-0.1-0.5-0.2-1.1c-0.5-3.8 0.5-7.8 2.8-10.9c2.3-3.1 5.9-5.2 9.7-5.7q0.6-0.1 1.2-0.2q0.9 0 1.8-0.1q0.8 0 1.6-0.1c1.3 0 2.7-0.1 4.1-0.1q0.7-0.1 1.3-0.1c1.4 0 3.1 0 4.7 0c52.9 0 104.9 21.4 142.6 58.7c0.9 0.9 1.8 1.8 2.7 2.8q2.7 2.8 5.3 5.6q3.8 4.3 7.6 9c2.5 3.1 4.9 6.3 7.1 9.4q2.3 3.3 4.4 6.6c0.7 1.1 1.5 2.2 2.2 3.4c1.4 2.2 2.7 4.5 4 6.8c1.9 3.3 3.8 6.9 5.7 10.6q2.4 5 4.6 10.2c1.7 3.9 3.3 8.1 4.8 12.4q0.8 2.1 1.4 4.2c1.3 4 2.6 8.2 3.7 12.4c6.4 25 8 50.5 4.7 75.9q-0.2 1.5-0.4 3l-0.1 0.2c-0.5 4-1.2 8.2-2.2 12.6c-0.9 4.3-1.9 8.5-3 12.4c-0.2 1-0.6 2.2-0.9 3.3q-0.9 2.9-1.8 5.7c-1.7 5.3-3.7 10.5-5.8 15.6q-1.1 2.5-2.1 4.9q-2.8 6.1-5.8 11.8q-1.5 2.7-3 5.4c-0.5 0.8-1.1 1.8-1.7 2.8c-9.1 15.5-20.4 29.7-33.3 42.3c-1.4 1.2-2.6 2.4-3.9 3.6c-1 0.9-1.9 1.8-2.9 2.6c-0.8 0.7-1.6 1.4-2.5 2.2c-0.9 0.7-1.8 1.5-2.8 2.3c-2.4 2-5 4-7.5 5.9c-1.1 0.8-2 1.5-3 2.2c-3.2 2.3-6.7 4.7-10.4 7q-0.5 0.3-1.1 0.6c-2.1 1.1-4.4 1.7-6.8 1.7zm-38.1-87.3l38.5 71c3.1-2 6-4 8.7-5.9c1-0.7 1.8-1.3 2.7-1.9c2.3-1.8 4.7-3.7 7-5.6q1.3-1 2.4-2c0.9-0.8 1.7-1.4 2.4-2.1c1-0.8 1.8-1.6 2.6-2.3c1.3-1.2 2.5-2.3 3.7-3.5c11.9-11.5 22.3-24.6 30.8-39c0.5-0.8 0.9-1.6 1.4-2.4c1-1.8 1.9-3.4 2.8-5c1.8-3.6 3.6-7.2 5.3-10.9c0.7-1.5 1.3-3.1 2-4.6c2-4.7 3.8-9.5 5.3-14.2q0.9-2.7 1.7-5.4q0.4-1.5 0.8-3q1.5-5.5 2.8-11.5c0.9-4 1.5-7.8 2.1-11.5v-0.3q0.2-1.3 0.4-2.6v-0.1c3-23.4 1.5-46.9-4.4-69.9c-1-3.9-2.1-7.8-3.3-11.5q-0.7-2-1.3-3.8c-1.4-4-2.9-7.9-4.5-11.5c-1.3-3.2-2.8-6.4-4.2-9.4c-1.7-3.4-3.5-6.7-5.3-9.8c-1.1-2.1-2.4-4.2-3.7-6.3c-0.7-1.1-1.3-2.1-1.9-3.1c-1.4-2.1-2.8-4.1-4.2-6.1c-2-2.8-4.2-5.8-6.5-8.6c-2.3-2.9-4.6-5.7-7-8.3q-2.4-2.6-4.9-5.2q-1.2-1.3-2.4-2.5c-34.8-34.5-82.7-54.2-131.5-54.2q-2.2 0-4.5 0.1c-0.3 0-0.5 0-0.6 0h-0.3q-1.9 0-3.9 0.2c-0.5 0-0.9 0-1.3 0l-0.4 0.1q-0.1 0-0.2 0l14.6 69.1q1.5 0.1 2.9 0.4q0.7 0 1.3 0.2q0.9 0.1 1.7 0.3q0.7 0.2 1.4 0.3q1 0.2 1.9 0.5q0.2 0.1 0.3 0.1q1 0.3 1.9 0.5l1.6 0.6q1.1 0.4 2.2 0.8q1.2 0.4 2.3 1q2.5 1.1 4.9 2.4c0.8 0.5 1.5 0.9 2.2 1.3c0.7 0.5 1.4 0.9 2.1 1.4q0.9 0.6 1.7 1.2l0.5 0.4q0.8 0.6 1.6 1.3l2.7 2.3q0.4 0.3 0.8 0.7c0.4 0.4 1 0.9 1.5 1.4q0.8 0.8 1.5 1.6l1.2 1.3q0.9 1 1.7 2.1q0.6 0.6 1.1 1.2l0.3 0.4c1.4 2 2.6 3.7 3.4 5c25.8 9.9 31 38.8 30.1 55.5c18.5 27.9 10 58.7 6.5 68.5q1.6 5 1.6 10.3q0 0.8-0.1 1.7q0 0.4 0 0.7l-0.1 0.6q0 0.2 0 0.4q0 0.3-0.1 0.7q0 0.2 0 0.5q-0.1 0.3-0.1 0.6q0 0.1-0.1 0.2q0 0.6-0.2 1.2q0 0.3-0.1 0.6q-0.1 0.4-0.2 0.8q0 0.4-0.1 0.7q-0.1 0.3-0.2 0.6q-0.1 0.2-0.1 0.5l-0.4 1.2v0.6l-0.5 1.1l-0.4 1.1l-0.2 0.2q-0.1 0.4-0.3 0.7v0.2q-0.4 0.9-0.9 1.8c-0.6 1.2-1.2 2.4-2 3.7q-0.2 0.5-0.5 0.9q-0.6 0.9-1.2 1.8l-0.1 0.3l-0.5 0.6q-0.4 0.6-0.9 1.2c-0.1 0.2-0.4 0.6-0.7 0.9l-0.2 0.3q-0.1 0.2-0.4 0.5q-0.5 0.6-1 1.2l-0.3 0.4q-0.2 0.3-0.5 0.6q-0.2 0.2-0.4 0.4l-0.4 0.5q-0.6 0.6-1.1 1.2l-0.2 0.2q-0.8 0.9-1.6 1.7q-0.5 0.5-1 1l-0.1 0.1l-1.2 1.1q-0.2 0.2-0.5 0.4q-0.2 0.2-0.4 0.4q-0.4 0.4-0.7 0.7q-0.1 0-0.1 0v0.1l-2.9 2.4q-0.8 0.6-1.6 1.2zm6.6-5.6v0.1q0-0.1 0-0.1zm1.8-31.3q0 0.1-0.1 0.2zm-12.3 19.5q0 0 0 0zm6.2-6.8q0 0 0 0zm1.4-2q-0.1 0-0.1 0.1zm4.9-11.7q0 0 0 0zm0.1-1.5q0 0.1 0 0.1zm-34.6-150v0.1q0 0 0-0.1z" /><path class="s3" d="m371.1 212.8q0 2.7-0.1 5.5q-0.1 2.7-0.3 5.5q-0.1 2.3-0.3 4.6q-0.1 1.2-0.2 2.3q-0.1 1.8-0.4 3.7q0 0.7-0.1 1.4q-0.2 1.4-0.4 2.8q-0.2 1.5-0.4 3q-0.2 1.6-0.5 3.2q-0.1 0.6-0.2 1.1q-0.4 2.2-0.8 4.4q-0.3 1.6-0.7 3.3q-0.4 2-0.9 3.9q-0.5 2.1-1 4.1q-0.5 1.9-1 3.7q-2.3 8.2-5.2 16.1q-0.8 2-1.6 3.9q-0.1 0.4-0.3 0.8q-0.6 1.5-1.2 2.9q-0.6 1.4-1.2 2.7q-0.2 0.7-0.5 1.3q-0.7 1.6-1.5 3.1q-0.5 1.1-1 2.2q-0.6 1.2-1.3 2.5q-0.4 0.8-0.8 1.6q0 0.1 0 0.1q-0.1 0.2-0.2 0.4q-0.7 1.4-1.5 2.8q-1.7 3.1-3.5 6.1q-1.2 2.2-2.6 4.3q-1 1.7-2.1 3.3q-0.5 0.8-1.1 1.7q-2.7 4.1-5.6 8q-0.5 0.7-1.1 1.4q-1.2 1.7-2.5 3.4q-1.6 2-3.3 4q-0.3 0.4-0.6 0.7q-1.3 1.6-2.6 3q-1.5 1.7-3 3.4q-1.3 1.4-2.6 2.8q-0.5 0.5-1 1q-0.5 0.5-0.9 1q-0.1 0-0.1 0.1c-0.4 0.3-0.8 0.8-1.2 1.1q-1 1.1-2.1 2.1q-0.8 0.8-1.5 1.5q-0.5 0.5-1.1 0.9q-5.2 4.9-10.8 9.4l-6.9-12.7l-30.7-56.6l-3.7-6.9l-1.1-1.9q0.5-0.3 1.3-0.9c1.3-0.9 3.6-2.4 6.2-4.7q0.1 0 0.1 0q0.4-0.4 0.8-0.7c0 0 0.1 0 0.1-0.1q0.6-0.5 1.2-1.1q0.3-0.2 0.6-0.5c0.2-0.1 0.3-0.2 0.4-0.4q0.2-0.1 0.3-0.2q0.3-0.2 0.5-0.5q0.1-0.1 0.2-0.2q0.7-0.7 1.5-1.4q0.7-0.7 1.4-1.5q0.1-0.1 0.2-0.2q0.4-0.5 0.8-0.9c0.2-0.2 0.3-0.3 0.5-0.5q0.2-0.2 0.3-0.4q0.4-0.5 0.8-1q0.5-0.5 1-1.1q0.1-0.2 0.2-0.3q0.4-0.6 0.8-1.1q0.5-0.6 0.9-1.2q0.1-0.1 0.2-0.2q0.7-1.1 1.3-2.2q0.2-0.1 0.2-0.3q1.1-1.7 1.9-3.4q0.4-0.8 0.7-1.5q0-0.1 0.1-0.1q0.3-0.7 0.5-1.5q0 0 0.1 0q0-0.1 0-0.2q0.1-0.1 0.1-0.2q0.1-0.4 0.3-0.8c0-0.2 0-0.3 0.1-0.4q0-0.1 0.1-0.2q0.1-0.5 0.2-1q0.1-0.2 0.2-0.5q0.1-0.3 0.1-0.7q0.1-0.3 0.2-0.6q0-0.1 0-0.2q0.1-0.6 0.2-1.1q0-0.2 0.1-0.3q0-0.1 0-0.2q0-0.3 0-0.5q0.1-0.3 0.1-0.6q0.1-0.3 0.1-0.6q0-0.3 0-0.5q0-0.8 0-1.5c0-3.4-0.6-6.9-2.1-10.4q15.9-35.9-6.1-66.2q4.5-41.5-27.4-51.2q-1.4-2.8-4.2-6.6c-0.4-0.5-0.8-1-1.3-1.6q-0.7-0.8-1.5-1.7c-0.4-0.4-0.8-0.9-1.2-1.3q-0.5-0.6-1.2-1.3q-0.7-0.6-1.4-1.3c-0.4-0.4-0.8-0.7-1.2-1.1q-0.2-0.1-0.3-0.3q-0.7-0.6-1.4-1.1q-0.8-0.7-1.7-1.3q-0.8-0.6-1.7-1.3q-0.9-0.6-1.8-1.1q-0.9-0.6-1.9-1.2q-2.1-1.1-4.3-2.1q-1-0.5-2-0.9q-0.9-0.3-1.8-0.6q-0.6-0.3-1.3-0.5q-0.8-0.2-1.7-0.5q-0.1 0-0.2 0q-0.9-0.3-1.9-0.5q-0.4-0.1-1-0.2q-0.8-0.2-1.7-0.4q-0.4-0.1-0.7-0.1q-4-0.6-8.4-0.6l-1.3-6.6l-0.5-2l-10.9-51.6l-3.3-15.4q4.7 0.2 9.2 0.7q3.5 0.3 6.9 0.8q0 0 0.1 0q0.1 0 0.2 0q1.4 0.2 2.7 0.4q4.7 0.7 9.4 1.7q1.1 0.2 2.2 0.4q0.9 0.2 1.9 0.4q3.2 0.7 6.4 1.6q5.1 1.3 10.3 2.9q1.7 0.5 3.4 1.1q1.1 0.4 2.2 0.8q1.3 0.4 2.6 0.9q1.1 0.4 2.3 0.9q1.4 0.5 2.9 1.1q11.5 4.6 22.4 10.7q1.6 0.8 3.1 1.7q1.6 0.9 3.1 1.8q1.5 0.9 3 1.9q3.1 1.9 6.1 4c0.9 0.5 1.7 1.1 2.5 1.6q2.5 1.8 5 3.7q1 0.8 2 1.5q1.3 1 2.6 2.1q1 0.8 2.1 1.7q1.4 1.1 2.7 2.3q0.9 0.7 1.8 1.5q7.4 6.4 14.1 13.7q1.1 1.1 2.1 2.3q1.4 1.5 2.7 3q1.1 1.2 2.1 2.4q3.8 4.5 7.2 9.2q1 1.3 2 2.7c4.1 5.8 8 11.9 11.5 18.2q1 1.6 1.8 3.3q2.1 4 4.1 8q0.6 1.4 1.2 2.7q1.4 3.1 2.7 6.2q0.7 1.6 1.3 3.2c1 2.5 2 5 2.8 7.5c6.7 19.1 10.3 38.6 10.9 57.8q0.2 3.4 0.2 6.8z" /><path class="s4" d="m200 86.6c34.6-1.9 88.7 17.3 102.6 85.6q19.4 95-43.2 117.8q-0.8-1.4-2.3-4.1c6.2-4.2 33.4-24.2 23.5-47.7q15.9-35.9-6.1-66.2q4.5-41.5-27.4-51.2q-13.5-27.6-45.8-27.6z" /><path class="s5" d="m300.5 357.5q137.1-148.1-18.3-303.6q58.3 27.5 78.2 101.5c19.8 74.1-6.4 183.4-59.9 202.1z" /><path fill-rule="evenodd" class="s2" d="m301.6 366.3q-1.8 0-3.5-0.4c-5.9-1-10.9-4.6-13.7-9.9l-30.7-56.6c-1.7-3.1-2.5-6.6-2.4-10.1c0.1-2.4 0.6-4.8 1.6-7c1.1-2.6 2.9-5 5.1-6.9l1.3-1.1q0.4-0.4 0.9-0.9l1-0.8q0.1-0.1 0.1-0.1l0.9-0.8q0.6-0.6 1.1-1.2q0.7-0.6 1.3-1.3l0.2-0.2q0.3-0.3 0.6-0.7l1.7-1.8c0.1-0.3 0.4-0.6 0.7-0.9l0.3-0.4q0.2-0.3 0.5-0.7c0.3-0.4 0.5-0.8 0.8-1.1l0.2-0.3q0.5-0.7 0.9-1.4l0.4-0.7q0.9-1.4 1.4-2.6l0.2-0.3q0.2-0.3 0.3-0.7l0.1-0.2v-6.4h1.8v-0.3q0 0 0-0.1v-0.1l0.1-0.8q0-0.5 0-0.9c0-2.5-0.5-4.9-1.5-7.3l-1.3-3.2l1.4-3.1c0.1-0.3 13.7-32.3-5.3-58.3l-1.8-2.5l0.3-3.1c0.2-1.4 3.3-35-21.8-42.7l-3.3-1l-1.5-3.1q-1.1-2.2-3.4-5.3l-0.3-0.3q-0.3-0.4-0.7-0.9l-0.3-0.3q-0.5-0.6-1.1-1.3q-0.5-0.6-1-1.1c-0.4-0.5-0.7-0.8-1-1l-0.3-0.3q-0.4-0.5-0.9-0.9l-0.3-0.3q-0.3-0.3-0.6-0.6l-0.6-0.5q-0.5-0.4-1-0.8c-0.5-0.4-1-0.8-1.5-1.2l-0.2-0.1q-0.6-0.5-1.2-0.9q-0.8-0.5-1.6-1c-0.6-0.4-1.1-0.7-1.6-1q-1.8-1-3.6-1.8c-0.6-0.3-1-0.4-1.4-0.6l-0.5-0.2q-0.6-0.2-1.3-0.4l-1.2-0.5c-0.3 0-0.7-0.2-1.2-0.3l-0.4-0.1q-0.5-0.2-1-0.3l-1.4-0.3q-0.5-0.1-1.1-0.2l-1.2-0.2h0.1h-0.3c-6.7-1-12.5-5.6-15.1-12q-0.7-1.7-1-3.4l-11-51.6c-2-9.3 3.1-18.7 12-22.2c2.9-1.1 6-1.5 9.2-1.2l1.7 0.2q0.9 0.1 1.7 0.3q5.2 0.7 10 1.7c0.6 0.1 1.5 0.3 2.3 0.5q1 0.2 2 0.4c2.1 0.5 4.3 1 6.6 1.6c3.6 0.9 7.2 2 10.7 3.1c1.1 0.3 2.3 0.7 3.5 1.1l2.3 0.8c0.8 0.3 1.8 0.6 2.7 1q1.2 0.4 2.4 0.9c1 0.3 2 0.7 3 1.1c8 3.2 15.9 7 23.4 11.1q1.6 0.9 3.2 1.9q1.6 0.9 3.2 1.8q1.6 1 3.2 2c1.9 1.2 3.9 2.5 6.3 4.1c0.5 0.4 1.1 0.8 1.7 1.2l0.8 0.5c1.8 1.3 3.5 2.6 5.2 3.8l2.2 1.7c0.8 0.6 1.7 1.4 2.7 2.1l2.1 1.7c0.9 0.8 1.9 1.6 2.9 2.4q1 0.9 1.9 1.7c5.1 4.5 10 9.2 14.6 14.1q1.1 1.2 2.3 2.5q1.4 1.5 2.7 3.1c0.7 0.8 1.4 1.7 2.2 2.5c2.6 3.2 5.2 6.4 7.5 9.6c0.7 0.8 1.3 1.8 2 2.7c4.4 6.2 8.5 12.6 12.1 19.1q0.9 1.6 1.9 3.4c1.4 2.7 2.8 5.5 4.1 8.3c0.5 0.9 0.9 1.8 1.3 2.7c1 2.2 2 4.4 2.9 6.6q0.7 1.6 1.3 3.3c1 2.5 2 5.2 2.9 7.8c6.8 19.5 10.6 39.8 11.3 60.1q0.2 3.5 0.2 7.1q0 2.9-0.1 5.8c-0.1 1.8-0.1 3.7-0.3 5.6q-0.1 2.4-0.3 4.9q-0.1 1.1-0.2 2.3q-0.2 2-0.4 3.9c0 0.4-0.1 0.9-0.2 1.5c-0.1 1-0.2 2-0.3 2.9q-0.2 1.6-0.5 3.1q-0.2 1.7-0.5 3.3q-0.1 0.7-0.2 1.3q-0.4 2.2-0.8 4.4q-0.4 1.8-0.8 3.6q-0.4 2-0.9 4c-0.3 1.3-0.6 2.7-1 4.1q-0.5 2.1-1.1 4.1c-1.5 5.5-3.4 11.1-5.4 16.6q-0.8 2-1.6 4.1q-0.2 0.4-0.4 0.9q-0.6 1.5-1.3 3c-0.3 0.8-0.7 1.7-1.1 2.6q-0.3 0.8-0.7 1.6l-0.2 0.4q-0.6 1.4-1.3 2.8c-0.2 0.6-0.6 1.4-1 2.2q-0.6 1.2-1.2 2.5v1.3l-1.6 1.6q-0.5 1.1-1.2 2.3c-1.1 2.1-2.3 4.2-3.6 6.4c-0.8 1.4-1.7 3-2.7 4.4c-0.6 1.1-1.4 2.3-2.2 3.5l-1.1 1.7c-1.9 2.9-3.9 5.7-5.9 8.4l-1.1 1.5c-0.8 1.1-1.7 2.2-2.6 3.4c-1.1 1.4-2.3 2.8-3.5 4.2q-0.3 0.5-0.7 0.9q-1.3 1.6-2.7 3.1c-0.9 1-1.9 2.2-3 3.4q-0.5 0.6-1.1 1.2l0.1 0.2l-3.6 3.5q-0.2 0.2-0.4 0.3q-0.5 0.6-1 1.1q-1.1 1.1-2.2 2.1q-0.7 0.7-1.5 1.5l-0.2 0.1q-0.2 0.2-0.5 0.5l-0.5 0.5q-0.1 0.1-0.2 0.2c-3.6 3-8 4.7-12.6 4.7zm-33.6-78.5q-0.3 0.3-0.5 0.7l-0.1 0.3q-0.2 0.5-0.2 1.1c-0.1 0.7 0.1 1.3 0.4 1.9l30.7 56.7c0.7 1.3 1.9 1.7 2.6 1.8c0.5 0.1 1.3 0.2 2.1-0.2l7.1-6.7l0.2-0.2q0.4-0.4 0.7-0.7l0.2-0.3q1.2-1.2 2.3-2.4c1.1-1.2 2.1-2.3 3-3.3c0.9-1.1 1.7-1.9 2.4-2.8l0.7-0.8q1.6-2 3.1-3.9q1.3-1.6 2.5-3.2l1.1-1.5c1.7-2.3 3.5-4.9 5.3-7.6l1.1-1.6c0.7-1.1 1.3-2.1 2-3.1c0.9-1.5 1.7-2.8 2.5-4.1c1.2-2.1 2.2-4 3.3-5.9l0.1-0.2q0.4-0.7 0.7-1.4v-0.2l1.4-2.5q0.1-0.2 0.2-0.4q0.7-1.2 1.2-2.4l0.1-0.3q0.5-0.9 0.9-1.7c0.5-1 0.8-1.8 1.2-2.6l0.4-0.9q0.1-0.2 0.2-0.5l0.2-0.5q0.6-1.2 1.1-2.4c0.4-1 0.8-1.9 1.1-2.8l0.3-0.7c0.6-1.4 1.1-2.7 1.5-3.9c1.9-5 3.6-10.2 5.1-15.4c0.3-1.2 0.7-2.4 0.9-3.6c0.4-1.2 0.7-2.5 1-3.9c0.3-1.2 0.6-2.4 0.8-3.6c0.3-1.2 0.5-2.3 0.7-3.3q0.4-2.1 0.8-4.1v-0.5q0.1-0.3 0.2-0.7q0.2-1.4 0.4-3l0.1-0.2q0.2-1.3 0.3-2.7l0.1-0.2q0.2-1.2 0.3-2.3v-0.4q0.1-0.6 0.2-1c0.1-1.4 0.2-2.5 0.3-3.6v-0.3q0.1-1 0.2-2q0.2-2.3 0.3-4.5q0.2-2.6 0.2-5.2c0.1-1.8 0.1-3.6 0.1-5.3q0-3.3-0.1-6.5c-0.6-18.8-4.2-37.5-10.4-55.5q-1.3-3.6-2.7-7.1c-0.4-1.1-0.8-2.1-1.3-3.1q-1.2-3.1-2.6-6.1c-0.3-0.7-0.7-1.5-1.1-2.4q-1.9-4-4-7.8c-0.5-1.1-1.1-2.1-1.7-3.1c-3.3-6-7-11.9-11.1-17.5c-0.6-0.9-1.2-1.7-1.8-2.5q-3.3-4.5-7-8.9q-0.9-1.1-1.9-2.2c-1-1.1-1.8-2.1-2.7-3q-0.9-1.2-1.9-2.2c-4.3-4.6-8.8-9-13.6-13.1c-0.6-0.5-1.1-1-1.6-1.4l-0.2-0.2q-1.2-1-2.5-2l-2.1-1.8q-1.2-0.9-2.4-1.8l-2.1-1.7c-1.5-1.1-3.1-2.2-4.7-3.4l-0.7-0.5q-0.8-0.5-1.5-1c-2.3-1.6-4.2-2.8-5.9-3.9c-1.1-0.6-2-1.2-3-1.8q-1.5-0.9-3-1.8q-1.4-0.8-2.9-1.6c-6.9-3.9-14.2-7.3-21.6-10.2q-1.4-0.6-2.7-1.1c-0.8-0.3-1.5-0.6-2.2-0.9q-1.2-0.4-2.4-0.8l-2.3-0.8q-1.5-0.5-3.1-1c-3.3-1-6.6-2-10-2.9q-3.1-0.8-6.1-1.4c-0.7-0.2-1.2-0.3-1.8-0.4l-0.2-0.1q-0.9-0.2-1.7-0.3c-3.2-0.7-6.3-1.2-9.3-1.7c-0.8-0.1-1.5-0.2-2.3-0.3h-1.4q-0.5 0-0.9 0.2c-1.5 0.5-2.7 2.2-2.3 4.1l11 51.6q0.1 0.4 0.2 0.8c0.5 1.1 1.5 2 2.6 2.2q0.4 0 0.7 0.1q0.6 0 1.1 0.2q0.9 0.1 1.8 0.3q0.7 0.1 1.3 0.3q1 0.2 2 0.5q0.2 0.1 0.3 0.1q1 0.3 1.9 0.5l0.5 0.2q0.6 0.2 1.2 0.4q1 0.4 2 0.8q1.2 0.4 2.4 1c1.5 0.6 3.2 1.5 4.9 2.4q1.2 0.7 2.3 1.4c0.6 0.4 1.3 0.8 2 1.3q0.9 0.6 1.7 1.2l0.2 0.2c0.7 0.5 1.3 1 1.9 1.5q0.8 0.6 1.7 1.3l0.2 0.2q0.8 0.7 1.6 1.5q0.8 0.7 1.5 1.4q0.8 0.8 1.5 1.6c0.3 0.3 0.8 0.8 1.2 1.3q0.9 1 1.7 2.1q0.6 0.6 1.1 1.2l0.3 0.4c1.4 2 2.6 3.7 3.4 5c25.8 9.9 31 38.8 30.1 55.5c18.5 27.9 10 58.7 6.5 68.5q1.6 5 1.6 10.3q0 0.8-0.1 1.7q0 0.5 0 0.9q-0.1 0.7-0.2 1.5q0 0.2 0 0.5q-0.1 0.3-0.1 0.6q0 0.1-0.1 0.3q-0.1 0.5-0.2 1.1q0 0.3-0.1 0.6q-0.1 0.4-0.2 0.8q0 0.4-0.1 0.7q-0.1 0.3-0.2 0.6q-0.1 0.2-0.1 0.5l-0.4 1.5l-1 2.6l-1.4 4.2h-0.6q-0.6 1.1-1.3 2.3q-0.2 0.5-0.5 0.9q-0.6 0.9-1.2 1.8l-0.1 0.3l-0.5 0.6q-0.4 0.6-0.9 1.2c-0.2 0.3-0.6 0.8-0.9 1.2q-0.2 0.2-0.4 0.5q-0.5 0.6-1 1.2l-0.3 0.4q-0.2 0.3-0.5 0.6q-0.2 0.2-0.4 0.4l-0.4 0.5q-0.6 0.6-1.1 1.2l-0.2 0.2q-0.8 0.9-1.6 1.7q-0.5 0.5-1 1l-0.1 0.1l-1.2 1.1q-0.2 0.2-0.5 0.4q-0.2 0.2-0.4 0.4q-0.4 0.4-0.7 0.7q-0.1 0-0.1 0v0.1zm4.8-4.3l-0.1 0.1q0 0 0.1-0.1zm-0.1 0.1q0 0 0 0zm-4.3-18.7q0 0-0.1 0.1zm-6.2 6.8q0 0-0.1 0zm7.7-8.8q0 0 0 0zm4.9-12q0 0 0 0zm0-1.1q0 0 0 0.1zm-34.6-150v0.1q0 0 0-0.1z" /><path class="s7" d="m397.3 227.3q-0.2 1.6-0.4 3.1q-0.8 6.1-2.1 12.1q-1.3 6-2.9 11.8q-0.4 1.6-0.9 3.2q-0.9 2.8-1.8 5.6q-2.4 7.5-5.5 14.9q-1 2.4-2.1 4.8q-2.6 5.7-5.5 11.3q-1.4 2.6-2.9 5.1q-0.7 1.4-1.5 2.7c-8.8 14.8-19.6 28.5-32.1 40.7q-1.9 1.7-3.8 3.5q-1.3 1.2-2.7 2.4q-1.2 1.1-2.4 2.1q-1.3 1.2-2.7 2.3q-3.6 2.9-7.3 5.7c-0.9 0.7-1.8 1.3-2.8 2q-4.9 3.6-10.1 6.9q-0.2 0.1-0.3 0.1q-2.9 1.8-5.9 3.5l-3.4-6.2l-6.9-12.7l-30.7-56.6l-3.7-6.9l0.2-2.8q1.1-0.1 3.1-0.4c2.5-0.4 6.4-1.1 11.3-2.3c11.6-2.8 28.7-8.3 46.1-18.7c13.2-7.8 26.6-18.4 37.8-32.8c4.2-5.3 8-11.1 11.5-17.6c1.4-2.6 2.8-5.3 4-8.1c4.7-10.3 8.3-21.9 10.5-35c2.3-13.3 3-28 1.9-44.5q2.5 5.9 4.7 11.9q0.7 2 1.3 4q2 6 3.5 12c6.3 24.4 7.6 49.1 4.5 72.9z" /></svg>