<svg version="1.2" xmlns="http://www.w3.org/2000/svg" viewBox="0 0 339 338" width="339" height="338"><style>.s0{fill:#ffffff}.s1{fill:#fddd0c}.s2{fill:#febd01}.s3{fill:#231f20}</style><path class="s0" d="m322.5 30.4c0.3 4.2 0.1 9.4-1.3 15.7c-1.5 7.1-1.5 14.8-1.1 21.4c0.4 7.7 2.2 15.4 4.6 22.8c18.1 55.8-1 127-53.7 179.8c-52.8 52.7-124 71.8-179.9 53.6c-7-2.2-14.2-3.9-21.6-4.4c-6.8-0.5-15-0.5-22.6 1.1c-6.2 1.3-11.4 1.5-15.6 1.3c-7.8-0.5-15.2-8.6-15.3-16.5c0-3.8 0.4-8.5 1.6-14.2c1.6-7.5 1.6-15.7 1.1-22.6c-0.6-7.3-2.2-14.5-4.5-21.6c-18.2-55.8 0.9-127.1 53.7-179.8c52.7-52.8 124-71.9 179.8-53.7c7.4 2.4 15 4.1 22.8 4.6c6.6 0.4 14.3 0.3 21.4-1.2c5.6-1.2 10.4-1.6 14.2-1.5c7.9 0 15.9 7.5 16.4 15.2z" /><path class="s1" d="m331 88.2c19.6 60.2-2.1 133.4-55.3 186.6c-40.2 40.2-91.8 62.4-140.6 62.4c-15.8 0-31.3-2.4-46-7.1c-7.1-2.4-13.7-3.7-20.1-4.2c-7.9-0.6-14.9-0.2-20.7 1q-6.9 1.4-13.4 1.5c-1.6-2-2.9-4.3-3.5-6.7q-0.5-1.8-0.5-3.5q0-1.5 0.1-3.3c0.1-3.1 0.6-6.8 1.4-10.9q0.2-0.9 0.4-1.8q0.1-0.6 0.2-1.3q0.1-0.7 0.2-1.4q0.2-1.2 0.3-2.3q0.1-1.2 0.1-2.3h0.1c0.3-4.7 0.1-9.3-0.2-13.5c-0.5-7.4-2.1-14.6-4.4-21.6c-18.2-55.9 0.9-127.1 53.7-179.9c52.7-52.7 123.9-71.8 179.8-53.6c7.4 2.4 15 4.1 22.8 4.6c6.5 0.4 14.2 0.3 21.4-1.2q4.6-1 8.4-1.3q0.6-0.1 1.2-0.1q1-0.1 2-0.1c0.9-0.1 1.8-0.1 2.6-0.1q0.3 0 0.7 0.1q0.2 0 0.5 0q0.5 0 1 0.1q1.1 0.2 2.2 0.6q0.7 0.2 1.4 0.5q0.5 0.3 1 0.5q0.4 0.2 0.7 0.4q0.4 0.2 0.7 0.4c0.2 5.3-0.2 11-1.4 16.7c-1.2 5.6-1.6 12.2-1.1 19.6c0.4 6.7 1.8 13.6 4.3 21.2z" /><path class="s1" d="m337.4 43.4l-0.1-0.7q0.1 0.3 0.1 0.7c0 0.5 0 1 0.1 1.5q-0.1-0.8-0.1-1.5z" /><path class="s2" d="m331 88.2c19.6 60.2-2.1 133.4-55.3 186.6c-40.2 40.2-91.8 62.4-140.6 62.4c-15.8 0-31.3-2.4-46-7.1c-7.1-2.4-13.7-3.7-20.1-4.2c-7.9-0.6-14.9-0.2-20.7 1q-6.9 1.4-13.4 1.5c-1.6-2-2.9-4.3-3.5-6.7q-0.5-1.8-0.5-3.5q0-1.5 0.1-3.3c0.1-3.1 0.6-6.8 1.4-10.9q0.2-0.9 0.4-1.8q0.1-0.6 0.2-1.3q0.1-0.7 0.2-1.4c0.1-0.8 0.2-1.6 0.3-2.3q0.1-1.2 0.1-2.3h0.1c2.8-0.2 6-0.6 9.6-1.3c7.6-1.6 15.8-1.6 22.6-1.1c7.3 0.5 14.6 2.2 21.6 4.4c55.8 18.2 127.1-0.9 179.8-53.6c31.1-31.1 50.5-68.5 57.5-105.5q0 0 0-0.1c2.3-12.5 3.3-24.9 2.8-37.1c-0.6-12.9-2.7-25.4-6.6-37.1q-0.6-1.9-1.1-3.8c-1.8-6.2-3.1-12.6-3.5-19.1c-0.2-3.8-0.3-8 0-12.3q1-0.1 2-0.1q1.3-0.1 2.5-0.1q0.4 0 0.8 0.1q0.2 0 0.5 0q0.5 0 1 0.1q1.1 0.2 2.2 0.6q0.7 0.2 1.4 0.5q0.5 0.3 1 0.5q0.4 0.2 0.7 0.4q0.4 0.2 0.7 0.4q0 0 0 0c0.2 5.3-0.2 11-1.4 16.7c-1.2 5.6-1.6 12.2-1.1 19.6c0.4 6.7 1.8 13.6 4.3 21.2z" /><path fill-rule="evenodd" class="s3" d="m275.7 274.8c-40.2 40.2-91.8 62.4-140.6 62.4c-15.8 0-31.3-2.4-46-7.1c-7.1-2.4-13.7-3.7-20.1-4.2c-7.9-0.6-14.9-0.2-20.7 1q-6.9 1.4-13.4 1.5q-2 0-4-0.1c-11.2-0.7-21.4-11.7-21.5-23c-0.1-4.9 0.5-10.2 1.7-15.6c1.2-5.9 1.5-12.8 1-20.8c-0.5-6.3-1.9-12.9-4.2-20c-19.6-60.2 2.1-133.4 55.3-186.6c53.2-53.2 126.4-74.9 186.6-55.3c7.5 2.4 14.5 3.9 21.1 4.3c7.5 0.4 14.1 0.1 19.6-1.1c5.5-1.1 10.7-1.7 15.6-1.7c5.7 0.1 11.3 2.6 15.5 6.6c4.3 4 7.2 9.3 7.5 14.9q0.1 0.3 0.1 0.7q0 0 0 0c0.2 5.3-0.2 11-1.4 16.7c-1.2 5.6-1.6 12.2-1.1 19.6c0.4 6.7 1.8 13.6 4.3 21.2c19.6 60.2-2.1 133.4-55.3 186.6zm-9.4-9.4c36.7-36.7 57.4-83.4 58.5-127.6q0 0 0-0.1c0.3-15.6-1.8-30.9-6.5-45.4c-2.8-8.6-4.4-16.6-4.9-24.4c-0.5-8.7-0.1-16.5 1.4-23.2c1-4.9 1.4-9.5 1.1-13.8c-0.1-0.9-0.3-1.7-0.7-2.5c-1.5-3.5-5.6-6.6-9.1-6.6c-4 0-8.3 0.5-12.8 1.4c-6.7 1.4-14.5 1.9-23.2 1.3c-7.8-0.5-15.8-2.1-24.5-4.9c-55.4-18-123.4 2.4-173 52.1c-49.7 49.7-70.1 117.6-52.1 173.1c2.7 8.1 4.3 15.7 4.8 23.2c0.7 9.1 0.3 17.4-1.2 24.4c-1 4.6-1.5 8.9-1.4 12.8c0 4.2 4.2 9 8.3 9.7q0.3 0.1 0.7 0.1c4.3 0.3 9-0.1 13.8-1.1c4.9-1 10.3-1.5 16.2-1.5q4 0 8.3 0.3c7.4 0.5 15 2.1 23.2 4.7c55.5 18.1 123.4-2.3 173.1-52z" /></svg>