<?xml version="1.0" encoding="utf-8"?>
<!-- Generator: Adobe Illustrator 24.3.0, SVG Export Plug-In . SVG Version: 6.00 Build 0)  -->
<svg version="1.1" id="圖層_1" xmlns="http://www.w3.org/2000/svg" xmlns:xlink="http://www.w3.org/1999/xlink" x="0px" y="0px"
	 viewBox="0 0 269.6 96.4" style="enable-background:new 0 0 269.6 96.4;" xml:space="preserve">
<style type="text/css">
	.st0{enable-background:new    ;}
	.st1{fill:#E9C500;}
</style>
<g id="圖層_2_1_">
	<g id="圖層_1-2">
		<g class="st0">
			<path d="M5.7,14.5l-5.4-1.3L0,5.2l19,1.3l11.8,37.1l8.5-34.8l18.2,1L38.4,67.7l-14.1-0.2L5.7,14.5z"/>
			<path d="M66.6,68l-14.1,0.8l-0.8-33.5l-4.6,1l1.5-7.7l15.9-6.7L66.6,68z M56.3,3c1.5,0,2.8,0.2,3.8,0.7c1.1,0.5,2,1.1,2.6,1.8
				c0.7,0.7,1.2,1.3,1.4,1.8c0.2,0.6,0.4,1.2,0.4,1.8c0,1-0.2,2.1-0.7,3.1c-0.4,1.1-1,2-1.6,2.7s-1.2,1.2-1.8,1.3
				c-1.1,0.2-1.9,0.2-2.4,0.2c-1.4,0-2.6-0.2-3.6-0.7c-1-0.5-1.8-1.2-2.4-2.1c-0.6-0.9-1-2-1.1-3.2c0-1.8,0.4-3.4,1.3-5
				C53.1,4,54.5,3.1,56.3,3z"/>
			<path d="M92.8,25c1.3,0.9,2.5,2,3.6,3.5c1.1,1.5,1.9,2.9,2.5,4.2c0.6,1.3,1,2.2,1.2,2.8L88.4,38c-0.2-1-0.7-1.7-1.7-2.1
				c-0.9-0.3-1.9-0.5-2.9-0.5c-5.3,0.5-7.9,3.7-7.9,9.5c0.1,4.6,1.6,7.2,4.3,7.7c1.3,0,2.5-0.3,3.6-1c1.1-0.6,2-1.5,2.7-2.6
				c0.8-1.1,1.4-2.3,1.9-3.6l11.6,2.3c-0.1,0.4-0.4,1.2-0.9,2.5c-0.5,1.4-1.8,3.3-3.8,5.6c-2,2.3-4.2,4-6.6,4.9
				c-2.9,1.1-5.9,1.7-8.8,1.7c-4.6,0-8.7-1.5-12.3-4.5c-1.6-1.4-2.8-3.1-3.5-4.9c-0.7-1.9-1.1-3.9-1.1-5.9c0-2.2,0.3-4.3,0.9-6.4
				c0.6-2.1,1.3-4,2.2-5.8c1.1-2.2,2.4-4.2,3.8-5.8s2.8-2.9,4.3-3.9c1.5-1,3.1-1.8,4.6-2.2c1.6-0.5,3.2-0.7,4.8-0.7
				C87,22.3,90,23.2,92.8,25z"/>
			<path d="M103.6,7.3l13.7-6.2l-0.2,21l10.2,0.2v12l-10.6,0.1c-0.4,3-0.6,5.7-0.6,8.3c0,2.2,0.1,4,0.4,5.4c0.2,1.2,0.7,2.1,1.6,2.7
				c0.8,0.6,1.8,0.9,2.9,0.9c1.2,0,2.3-0.4,3.2-1.1c0.9-0.7,1.4-1.7,1.4-3c0-0.2,0-0.6-0.1-1.1l10.2-6.7c0.4,0.8,1,2.2,1.6,4.1
				c0.7,1.9,1,4,1,6.3c0,2.7-0.7,5.2-2.2,7.4c-1.4,2.2-3.9,3.9-7.4,5c-2.4,0.8-4.7,1.2-6.9,1.2c-3.3,0-6.2-0.7-8.6-2.2
				c-2.5-1.4-4.6-3.2-6.2-5.2c-0.8-0.9-1.4-2.5-1.8-4.7c-0.4-2.2-0.7-4.4-0.8-6.8c-0.1-2.4-0.2-4.7-0.2-7.1v-3.5L94.9,35l-2.3-14.1
				l11.7,0.8L103.6,7.3z"/>
			<path d="M166,28.2c1.5,0.8,2.7,1.9,3.6,3.2s1.6,2.9,2,4.5c0.4,1.7,0.6,3.4,0.6,5.2c0,1.5-0.1,2.9-0.4,4.3c-0.2,1.4-0.6,2.7-1,3.8
				c-0.4,1.2-0.9,2.2-1.5,3c-1.3,2-2.7,3.6-4.2,5.1c-1.5,1.4-3,2.6-4.6,3.4c-1.6,0.9-3.1,1.5-4.6,1.9s-3,0.6-4.5,0.6
				c-1.8,0-3.5-0.3-5-0.8s-3-1.3-4.1-2.2c-1.9-1.5-3.3-3.6-4.3-6.2c-1-2.6-1.6-5.4-1.6-8.3c0-5,1.4-9.1,4.3-12.2
				c2.5-2.6,5-4.6,7.7-6s5.4-2,8.1-2c1.6,0,3.2,0.2,4.7,0.6S164.4,27.3,166,28.2z M164.2,33.5c-0.4,1.6-1.1,3-2.3,4.2
				c-1.2,1.2-2.3,1.8-3.5,1.8c-0.6,0-1.1-0.1-1.5-0.4c-0.6-0.5-0.9-1.4-0.9-2.6c0-1,0.3-1.9,1-2.8s1.6-1.7,3-2.2
				c-1.4,0-2.7,0.3-4,0.8c-1.3,0.5-2.4,1.2-3.3,2c-0.9,0.8-1.7,1.8-2.2,2.8s-0.8,2.1-0.8,3.1c0,1.9,0.9,3.5,2.7,4.6
				c1.7,1.1,3.2,1.6,4.8,1.6c1.5,0,2.8-0.5,3.9-1.5c1.1-1,2-2.3,2.6-3.8c0.6-1.6,0.9-3.1,0.9-4.6C164.6,35.3,164.4,34.4,164.2,33.5z
				"/>
			<path d="M206.6,31.6l-11,7.2c-0.5-1.4-1.3-2.6-2.2-3.6c-0.9-1-1.8-1.5-2.8-1.5c-1.4,0-2.5,1.1-3.5,3.2c-0.9,2.1-1.3,5.7-1.3,10.9
				c0,3.6,0.2,7.9,0.6,12.9L171,62.6c-0.9-6.4-1.3-12.2-1.3-17.2c0-0.8,0-2,0.1-3.4l-0.6-18.2l12.3-1.5l1.8,2.1
				c1.5-0.5,2.8-0.9,4-1.3c1.2-0.4,2.4-0.6,3.5-0.8c1.1-0.2,2.1-0.3,3.2-0.3c2.1,0,3.9,0.5,5.4,1.4c2,1.1,3.5,2.2,4.7,3.4
				S206.1,29.5,206.6,31.6z"/>
			<path d="M202.3,31.6l12.5-5.9L227.4,49l7.7-21.5l13.8,5.4l-23.3,56.3l-12.3-4.6l7.2-19.5L202.3,31.6z"/>
		</g>
		<g class="st0">
		</g>
		<g class="st0">
			<path d="M253,40.3l-4.1-34.6l18.7-5.6l-3.8,39.2L253,40.3z M257.6,49c1.5,0,2.8,0.2,3.8,0.7c1.1,0.5,2,1.1,2.6,1.8
				c0.7,0.7,1.2,1.3,1.4,1.8c0.2,0.6,0.4,1.2,0.4,1.9c0,1-0.2,2-0.7,3.1s-1,1.9-1.6,2.7s-1.2,1.2-1.8,1.3c-1.1,0.2-1.9,0.2-2.4,0.2
				c-2.1,0-3.7-0.5-5-1.6c-1.2-1.1-2-2.5-2.2-4.4c0-1.8,0.4-3.5,1.3-5C254.4,50,255.7,49.2,257.6,49z"/>
		</g>
		<g class="st0">
			<path class="st1" d="M7.7,18.5l-5.4-1.3L2,9.2l19,1.3l11.8,37.1l8.5-34.8l18.2,1L40.4,71.7l-14.1-0.2L7.7,18.5z"/>
			<path class="st1" d="M68.6,72l-14.1,0.8l-0.8-33.5l-4.6,1l1.5-7.7l15.9-6.7L68.6,72z M58.3,7c1.5,0,2.8,0.2,3.8,0.7
				c1.1,0.5,2,1.1,2.6,1.8c0.7,0.7,1.2,1.3,1.4,1.8c0.2,0.6,0.4,1.2,0.4,1.8c0,1-0.2,2.1-0.7,3.1c-0.4,1.1-1,2-1.6,2.7
				s-1.2,1.2-1.8,1.3c-1.1,0.2-1.9,0.2-2.4,0.2c-1.4,0-2.6-0.2-3.6-0.7c-1-0.5-1.8-1.2-2.4-2.1c-0.6-0.9-1-2-1.1-3.2
				c0-1.8,0.4-3.4,1.3-5C55.1,8,56.5,7.1,58.3,7z"/>
			<path class="st1" d="M94.8,29c1.3,0.9,2.5,2,3.6,3.5c1.1,1.5,1.9,2.9,2.5,4.2c0.6,1.3,1,2.2,1.2,2.8L90.4,42
				c-0.2-1-0.7-1.7-1.7-2.1c-0.9-0.3-1.9-0.5-2.9-0.5c-5.3,0.5-7.9,3.7-7.9,9.5c0.1,4.6,1.6,7.2,4.3,7.7c1.3,0,2.5-0.3,3.6-1
				c1.1-0.6,2-1.5,2.7-2.6c0.8-1.1,1.4-2.3,1.9-3.6l11.6,2.3c-0.1,0.4-0.4,1.2-0.9,2.5c-0.5,1.4-1.8,3.3-3.8,5.6
				c-2,2.3-4.2,4-6.6,4.9c-2.9,1.1-5.9,1.7-8.8,1.7c-4.6,0-8.7-1.5-12.3-4.5c-1.6-1.4-2.8-3.1-3.5-4.9c-0.7-1.9-1.1-3.9-1.1-5.9
				c0-2.2,0.3-4.3,0.9-6.4c0.6-2.1,1.3-4,2.2-5.8c1.1-2.2,2.4-4.2,3.8-5.8s2.8-2.9,4.3-3.9c1.5-1,3.1-1.8,4.6-2.2
				c1.6-0.5,3.2-0.7,4.8-0.7C89,26.3,92,27.2,94.8,29z"/>
			<path class="st1" d="M105.6,11.3l13.7-6.2l-0.2,21l10.2,0.2v12l-10.6,0.1c-0.4,3-0.6,5.7-0.6,8.3c0,2.2,0.1,4,0.4,5.4
				c0.2,1.2,0.7,2.1,1.6,2.7c0.8,0.6,1.8,0.9,2.9,0.9c1.2,0,2.3-0.4,3.2-1.1c0.9-0.7,1.4-1.7,1.4-3c0-0.2,0-0.6-0.1-1.1l10.2-6.7
				c0.4,0.8,1,2.2,1.6,4.1c0.7,1.9,1,4,1,6.3c0,2.7-0.7,5.2-2.2,7.4c-1.4,2.2-3.9,3.9-7.4,5c-2.4,0.8-4.7,1.2-6.9,1.2
				c-3.3,0-6.2-0.7-8.6-2.2c-2.5-1.4-4.6-3.2-6.2-5.2c-0.8-0.9-1.4-2.5-1.8-4.7c-0.4-2.2-0.7-4.4-0.8-6.8c-0.1-2.4-0.2-4.7-0.2-7.1
				v-3.5L96.9,39l-2.3-14.1l11.7,0.8L105.6,11.3z"/>
			<path class="st1" d="M168,32.2c1.5,0.8,2.7,1.9,3.6,3.2s1.6,2.9,2,4.5c0.4,1.7,0.6,3.4,0.6,5.2c0,1.5-0.1,2.9-0.4,4.3
				c-0.2,1.4-0.6,2.7-1,3.8c-0.4,1.2-0.9,2.2-1.5,3c-1.3,2-2.7,3.6-4.2,5.1c-1.5,1.4-3,2.6-4.6,3.4c-1.6,0.9-3.1,1.5-4.6,1.9
				s-3,0.6-4.5,0.6c-1.8,0-3.5-0.3-5-0.8s-3-1.3-4.1-2.2c-1.9-1.5-3.3-3.6-4.3-6.2c-1-2.6-1.6-5.4-1.6-8.3c0-5,1.4-9.1,4.3-12.2
				c2.5-2.6,5-4.6,7.7-6s5.4-2,8.1-2c1.6,0,3.2,0.2,4.7,0.6S166.4,31.3,168,32.2z M166.2,37.5c-0.4,1.6-1.1,3-2.3,4.2
				c-1.2,1.2-2.3,1.8-3.5,1.8c-0.6,0-1.1-0.1-1.5-0.4c-0.6-0.5-0.9-1.4-0.9-2.6c0-1,0.3-1.9,1-2.8s1.6-1.7,3-2.2
				c-1.4,0-2.7,0.3-4,0.8c-1.3,0.5-2.4,1.2-3.3,2c-0.9,0.8-1.7,1.8-2.2,2.8s-0.8,2.1-0.8,3.1c0,1.9,0.9,3.5,2.7,4.6
				c1.7,1.1,3.2,1.6,4.8,1.6c1.5,0,2.8-0.5,3.9-1.5c1.1-1,2-2.3,2.6-3.8c0.6-1.6,0.9-3.1,0.9-4.6C166.6,39.3,166.4,38.4,166.2,37.5z
				"/>
			<path class="st1" d="M208.6,35.6l-11,7.2c-0.5-1.4-1.3-2.6-2.2-3.6c-0.9-1-1.8-1.5-2.8-1.5c-1.4,0-2.5,1.1-3.5,3.2
				c-0.9,2.1-1.3,5.7-1.3,10.9c0,3.6,0.2,7.9,0.6,12.9L173,66.6c-0.9-6.4-1.3-12.2-1.3-17.2c0-0.8,0-2,0.1-3.4l-0.6-18.2l12.3-1.5
				l1.8,2.1c1.5-0.5,2.8-0.9,4-1.3c1.2-0.4,2.4-0.6,3.5-0.8c1.1-0.2,2.1-0.3,3.2-0.3c2.1,0,3.9,0.5,5.4,1.4c2,1.1,3.5,2.2,4.7,3.4
				S208.1,33.5,208.6,35.6z"/>
			<path class="st1" d="M204.3,35.6l12.5-5.9L229.4,53l7.7-21.5l13.8,5.4l-23.3,56.3l-12.3-4.6l7.2-19.5L204.3,35.6z"/>
		</g>
		<g class="st0">
		</g>
		<g class="st0">
			<path class="st1" d="M255,44.3l-4.1-34.6l18.7-5.6l-3.8,39.2L255,44.3z M259.6,53c1.5,0,2.8,0.2,3.8,0.7c1.1,0.5,2,1.1,2.6,1.8
				c0.7,0.7,1.2,1.3,1.4,1.8c0.2,0.6,0.4,1.2,0.4,1.9c0,1-0.2,2-0.7,3.1s-1,1.9-1.6,2.7s-1.2,1.2-1.8,1.3c-1.1,0.2-1.9,0.2-2.4,0.2
				c-2.1,0-3.7-0.5-5-1.6c-1.2-1.1-2-2.5-2.2-4.4c0-1.8,0.4-3.5,1.3-5C256.4,54,257.7,53.2,259.6,53z"/>
		</g>
	</g>
</g>
</svg>
