<svg version="1.2" xmlns="http://www.w3.org/2000/svg" viewBox="0 0 393 370" width="393" height="370"><style>.s0{fill:#f21626}.s1{fill:#cc1f1f}.s2{fill:#231f20}.s3{fill:#ffffff}.s4{fill:#01982f}.s5{fill:#09b532}</style><path class="s0" d="m392.7 283.7c-1.7 25.2-17.7 49.8-41.9 64.3c-7.1 4.3-14.7 7.6-22.6 9.8c-6.6 0.7-13.4 0.7-20.5 0q-1.1-0.1-2.2-0.3q-2.8-0.4-5.7-0.9h-0.1c-8.4-1.6-17.1-4.4-26-8.4q-7.4-3.5-16-10.4q0 0-0.1 0c-6.4-5.2-13.7-12.3-18.9-21.2c-10.1-17-9.6-38.6 2.8-54c4.2-5.2 10.1-10 18.3-13.4c2-0.9 4.2-1.5 6.3-2.1c4.1-1.3 16.7-6.2 26.1-23.4q8-15.6 24.8-23h0.1q0.1-0.1 0.3-0.2q0.4-0.1 0.7-0.3q0 0 0 0q0.5-0.2 0.9-0.3q1-0.4 1.9-0.7q2-0.7 4.1-1.2q0.8-0.2 1.7-0.3q1.6-0.3 3.2-0.5q1.3-0.2 2.6-0.2q1.4-0.1 2.7-0.1q2 0 4.1 0.1c6.2 0.6 12.4 2.4 18.4 5.4q0.1 0 0.1 0.1c21.2 17.5 37.1 47.6 34.9 81.2z" /><path class="s1" d="m392.7 283.7c-1.7 25.2-17.7 49.8-41.9 64.3c-7.1 4.3-14.7 7.6-22.6 9.8q-0.1 0.1-0.1 0.1c-5.7 0.6-11.6 0.6-17.7 0.1q-1.3-0.1-2.7-0.2q-1.1-0.1-2.2-0.3q-2.8-0.4-5.7-0.9c13.5-2.7 25.5-8.3 35.6-15.9c18.3-13.6 29.9-33.6 31.2-53.9c2.6-40-22.3-74.9-49.5-86.1q0.1-0.1 0.3-0.2q0.4-0.1 0.7-0.3q0.5-0.2 0.9-0.3q1-0.4 1.9-0.7q2-0.7 4.1-1.2q0.8-0.2 1.7-0.3q1.6-0.3 3.2-0.5q1.3-0.2 2.6-0.2q1.4-0.1 2.7-0.1q2 0 4.1 0.1c6.2 0.6 12.4 2.4 18.4 5.4q0.1 0 0.1 0.1c21.2 17.5 37.1 47.6 34.9 81.2z" /><path fill-rule="evenodd" class="s2" d="m392.7 283.7c-1.7 25.2-17.7 49.8-41.9 64.3c-7.1 4.3-14.7 7.6-22.6 9.8q-0.1 0.1-0.1 0.1c-8.8 2.5-17.9 3.7-27.2 3.7c-15.6 0-31.8-3.5-47.5-10.6c-1.2-0.6-24.9-12.1-38.2-34.4c-11.8-19.9-10.4-44.7 3.5-61.8c5.5-6.8 12.6-12 20.9-15.4c2.5-1.1 5-1.8 7-2.4c3.1-0.9 13.8-5 22.1-20c1.2-2.4 18-33.2 53.7-30.3c12 1 24.4 6.7 35.3 15.7q0.1 0 0.1 0.1c21.2 17.5 37.1 47.6 34.9 81.2zm-71.5-83.3q-1.5-0.2-3.1-0.2q0 0 0 0c-24.9-0.2-36.8 22.2-37.3 23.1c-10.6 19.3-24.7 25.1-30.3 26.8c-1.8 0.5-3.9 1.1-5.7 1.9c-6.2 2.6-11.4 6.4-15.5 11.4c-10.3 12.7-11.2 31.2-2.3 46.2c9.4 15.7 25.6 25.5 30.6 28.2q0.1 0 0.1 0c0.9 0.5 1.4 0.8 1.4 0.8c33.6 15.1 60.1 9.4 76.3 2.1c3.2-1.4 6-3 8.4-4.4c20.4-12.2 33.9-32.7 35.3-53.5c2.8-42.8-29.4-80.1-57.9-82.4z" /><path class="s0" d="m194.3 256.9c4.8 28.6-6.8 62.9-29.1 85.3c-10.4 10.6-26.3 21.8-48.8 25.9c0 0-0.1 0.1-0.1 0c-6.5 0.2-13.4-0.2-20.7-1.4q-1.4-0.2-2.7-0.5q-0.5-0.1-1-0.2q-0.1 0-0.1 0q-1.3-0.3-2.6-0.6c-0.1 0-0.1 0-0.2-0.1c-0.8-0.2-1.6-0.4-2.4-0.6q-3.1-1-6.1-2.2q-0.8-0.3-1.6-0.7q-0.9-0.3-1.8-0.8q-0.9-0.4-1.7-0.8q-1.8-0.8-3.5-1.8q0 0 0 0q-0.8-0.4-1.6-0.9q-1.3-0.7-2.6-1.6q-0.8-0.5-1.7-1.1q-1.3-0.9-2.6-1.8q-0.6-0.5-1.3-1q-2.3-1.7-4.5-3.7q-0.8-0.6-1.5-1.3q-1.5-1.3-2.9-2.7q-0.7-0.7-1.4-1.4q-0.8-0.8-1.6-1.7q-0.3-0.3-0.5-0.5c-28.8-31.5-38.1-83.3-6.9-115c6.4-6.6 14.8-10.6 23.6-12.6c6.5-1.5 13.2-1.9 19.8-1.4c6.2 0.4 12.4 1.8 18.4 3.6c5.2 1.6 14.8 4 26.1 3.8c9.7-0.1 19.4 0.8 28.8 3.2c1.1 0.3 2.3 0.7 3.5 1q3.1 0.9 6.4 2.2c2.7 1 5.4 2.2 8 3.7q0.9 0.4 1.6 0.8q0.8 0.5 1.6 0.9q0.8 0.5 1.5 1q0.8 0.5 1.6 1c5.5 6.9 9.1 14.9 10.6 24z" /><path class="s1" d="m194.3 256.9c4.8 28.6-6.8 62.9-29.1 85.3c-10.4 10.6-26.3 21.8-48.8 25.9c0 0-0.1 0.1-0.1 0c-6.5 0.2-13.4-0.2-20.7-1.4q-1.4-0.2-2.7-0.5q-0.5-0.1-1-0.2q-0.1 0-0.1 0q-1.3-0.3-2.6-0.6c-0.1 0-0.1 0-0.2-0.1c-0.8-0.2-1.6-0.4-2.4-0.6q-3.1-1-6.1-2.2q-0.8-0.3-1.6-0.7q-0.9-0.3-1.8-0.8q-0.9-0.4-1.7-0.8q-1.8-0.8-3.5-1.8q0 0 0 0q-0.8-0.4-1.6-0.9q-1.3-0.7-2.6-1.6q-0.8-0.5-1.7-1.1q-1.3-0.9-2.6-1.8q-0.6-0.5-1.3-1q-2.3-1.7-4.5-3.7q-0.8-0.6-1.5-1.3q-1.5-1.3-2.9-2.7q-0.7-0.7-1.4-1.4c-0.6-0.6-1.1-1.2-1.7-1.7q0.1 0 0.1 0q0.2 0.1 0.4 0.1c3.7 1.3 7.5 2.2 11.4 2.9c78.9 12.5 115.2-59.1 107.7-103.5q-0.3-1.8-0.7-3.6c-1.3-5.2-3.4-9.8-6-13.8q-0.1 0-0.1 0q3.2 0.9 6.5 2.2c2.7 1 5.4 2.2 8 3.7q0.9 0.4 1.6 0.8q0.8 0.5 1.6 0.9q0.8 0.5 1.5 1q0.8 0.5 1.6 1c5.5 6.9 9.1 14.9 10.6 24z" /><path fill-rule="evenodd" class="s2" d="m165.2 342.2c-10.4 10.6-26.3 21.8-48.8 25.9c0 0-0.1 0.1-0.1 0c-5.7 1.1-11.8 1.7-18.4 1.7c-6 0-12.4-0.5-19.1-1.6c-32.5-5.2-61.1-31.7-73-67.7c-10.5-32-4.4-63.8 16.3-84.8c11.4-11.7 29.2-17.5 48.8-16.1c6.4 0.5 13.1 1.8 20 4c4.4 1.3 13.4 3.6 24 3.5c10.9-0.2 21.2 0.9 30.5 3.4c17 4.4 29.9 12 38.3 22.4c5.5 6.9 9.1 14.9 10.6 24c4.8 28.6-6.8 62.9-29.1 85.3zm15.6-83q-2.2-13.2-11.8-22.1q-9.8-9-27-13.4c-8.2-2.1-17.2-3.1-26.9-3c-12.5 0.2-23.1-2.5-28.3-4.1c-5.9-1.8-11.6-3-16.9-3.4c-1.2-0.1-2.3-0.1-3.5-0.1q-0.7 0-1.3 0c-13.6 0-25.5 4.3-33.3 12.1c-17 17.4-21.9 44-13 71c6 18.2 17.2 33.8 30.9 44.5q0.4 0.3 0.9 0.6c9.3 7 19.6 11.7 30.3 13.4c37.6 6 61.4-8.7 74.6-22.1c19-19.1 29.4-49.3 25.3-73.4z" /><path class="s2" d="m122.3 226.8c-0.3 2.2-8 2.8-17.2 1.4c-9.1-1.4-16.3-4.3-16-6.5c0.4-2.1 8.1-2.7 17.2-1.3c9.2 1.4 16.3 4.3 16 6.4z" /><path class="s2" d="m102.4 224c1-10.6 2.9-20.7 5.2-30.9c2.3-10.1 5.1-20.1 8.4-29.9c6.6-19.8 15.2-38.8 25.5-57c5.2-9.1 10.9-17.9 17-26.4q9.3-12.8 19.9-24.5c14.1-15.7 30.1-29.7 47.3-42c4.4-3.1 10.5-2.1 13.7 2.3c3.1 4.4 2.1 10.5-2.3 13.6q-0.2 0.2-0.4 0.3l-0.1 0.1c-16.7 10.6-32.3 22.9-46.4 36.9q-10.5 10.6-20 22.2c-6.2 7.8-12.1 15.9-17.5 24.3c-10.8 16.8-20.1 34.8-27.4 53.6c-3.7 9.3-7 18.9-9.7 28.6c-2.7 9.7-5.1 19.6-6.6 29.4v0.1c-0.2 1.9-1.9 3.1-3.8 2.9c-1.7-0.3-2.9-1.9-2.8-3.6z" /><path class="s2" d="m224.1 33.6c-0.9 4-1.8 8.5-2.5 12.8c-0.7 4.3-1.4 8.7-1.9 13.1q-1.7 13.1-2.3 26.4c-0.8 17.6-0.3 35.4 2.4 52.8c1.3 8.7 3.1 17.3 5.8 25.7c2.6 8.3 5.6 16.6 9.8 24.2c4.1 7.7 8.9 15 14.6 21.6c5.8 6.6 12.4 12.3 19.5 17.4l-3.4 5.3c-7.9-5-15.2-10.9-21.7-17.6c-6.4-6.8-11.9-14.4-16.6-22.5c-4.8-8-8.4-16.6-11.6-25.4c-3.1-8.7-5.4-17.7-7.2-26.8c-3.7-18.2-5-36.6-4.9-55.1q0-13.8 1.2-27.6c0.4-4.5 0.9-9.1 1.4-13.7c0.6-4.6 1.3-9.1 2.2-13.9z" /><path class="s3" d="m276.4 100.6q-23.6-6.9-35.6-24.1q-14.4-20.5-13.9-37.1q27.1 2.5 42.7 23.5q12.5 16.8 6.8 37.7z" /><path class="s4" d="m224.7 37q0 0 0 0.1q0-0.1 0-0.1z" /><path class="s5" d="m271.3 104.4q-50.6-5-52.7-59.2q-0.1-1.5-0.1-3q1.6 0.5 3.1 1q1.2 0.4 2.3 0.9c11.5 4.4 20.7 10.5 24.5 13.3c14.2 11.4 25.6 27.4 22.9 47z" /><path fill-rule="evenodd" class="s2" d="m281.2 109.2l-6.7-2c-1.1-0.3-26.1-7.9-39.3-26.8c-15.5-22.1-15.2-40.4-15.1-41.2l0.2-7.2l7.2 0.6c1.3 0.1 30.4 3.1 47.6 26.2c14.3 19.3 8.2 42.7 7.9 43.6zm-46.2-61.1c1.4 6 4.6 14.8 11.4 24.6c6.6 9.3 17.3 15.3 24.5 18.6c0.2-6.6-0.7-16.1-6.7-24.2c-8.5-11.4-20.9-16.6-29.2-19z" /><path class="s3" d="m131.7 15.2q22.1-10.9 42.6-6.5q24.5 5.3 35.3 17.8q-21.6 16.6-47.3 11.8q-20.6-3.9-30.6-23.1z" /><path class="s4" d="m212.9 26.8q0 0-0.1-0.1q0.1 0.1 0.1 0.1z" /><path class="s5" d="m122.1 28.1q40.7-30.6 79 7.7q1 1.1 2.1 2.2q-1.5 0.7-3 1.3q-1.1 0.5-2.2 1c-11.5 4.6-22.5 6.3-27.2 6.8c-18.1 1.3-37.3-2.8-48.7-19z" /><path fill-rule="evenodd" class="s2" d="m171.9 46c-3.5 0-7.1-0.3-10.8-1c-23.6-4.4-35-25.8-35.4-26.7l-3.2-6.2l6.2-3.1c1-0.5 24.5-11.9 47-7c26.4 5.7 38.6 19.4 39.1 20l4.8 5.5l-5.8 4.4c-0.9 0.7-18.7 14.1-41.9 14.1zm-29.6-27.7c4.2 5 11.3 11.4 21.3 13.3c13.8 2.5 26.5-2.1 34.3-6c-5.2-3.4-13.4-7.7-25.1-10.2c-11.1-2.4-23 0.4-30.5 2.9z" /></svg>