<svg version="1.2" xmlns="http://www.w3.org/2000/svg" viewBox="0 0 355 400" width="355" height="400"><style>.s0{fill:#b0822a}.s1{fill:#99c943}.s2{fill:#000000}.s3{fill:#ffffff}.s4{fill:#231f20}.s5{fill:#80af22}.s6{fill:#e9f0a6}.s7{fill:#37b34a}.s8{fill:#333333}</style><path class="s0" d="m346.5 199.7c0 105.9-73.9 191.7-165 191.7c-51.9 0-98.2-27.9-128.4-71.4c-22.9-32.8-36.6-74.7-36.6-120.3c0-105.8 73.9-191.6 165-191.6c19.1 0 37.6 3.8 54.7 10.8c64.2 26.2 110.3 97.3 110.3 180.8z" /><path class="s1" d="m327 199.7c0 93.4-65.2 171.3-145.5 171.3c-80.4 0-145.5-77.9-145.5-171.3c0-93.3 65.1-171.3 145.5-171.3c80.3 0 145.5 78 145.5 171.3z" /><g style="opacity: .1;mix-blend-mode: multiply"><path class="s2" d="m346.5 199.7c0 105.9-73.9 191.7-165 191.7c-51.9 0-98.2-27.9-128.4-71.4c26.4 23.9 59.4 38.1 95.2 38.1c87 0 157.6-84.4 157.6-185.5c0-63.4-27.7-120.1-69.7-153.7c64.2 26.2 110.3 97.3 110.3 180.8z" /></g><path class="s3" d="m187.7 390.8q-6.3 0.6-12.7 0.6c-93.4 0-169.1-85.8-169.1-191.7c0-105.8 75.7-191.6 169.1-191.6q3.4 0 6.7 0.1c-7.5 1.1-165.2 25.3-157.1 210.4q9.8 155.5 163.1 172.2z" /><path fill-rule="evenodd" class="s4" d="m177.3 399.3c-37.6 0-73.6-13.1-103.9-37.9c-45.8-37.5-73.2-97.9-73.2-161.7c0-110 79.5-199.6 177.1-199.6c2.5 0 4.8 0.1 6.9 0.2h0.1c66.2 2.9 124.9 46.7 153.2 114.3c11.2 26.7 16.9 55.4 16.9 85.1c0 50.6-16.8 98.8-47.3 135.8c-30.5 37-71.9 59.5-116.5 63.2c-4.4 0.4-8.8 0.6-13.3 0.6zm0-383.3c-88.9 0-161.2 82.4-161.2 183.7c0 59.1 25.2 114.9 67.3 149.4c27.5 22.5 60 34.4 93.9 34.4c4 0 8-0.2 11.9-0.6c83.8-7 149.3-87.4 149.3-183.2c0-27.6-5.2-54.2-15.6-79c-25.9-61.8-79.2-101.9-139.1-104.6h-0.3c-1.9-0.1-3.9-0.1-6.2-0.1z" /><path class="s5" d="m185.9 106.9c0 18.3-3.7 33.2-8.3 33.2c-4.6 0-8.3-14.9-8.3-33.2c0-18.3 3.7-33.2 8.3-33.2c4.6 0 8.3 14.9 8.3 33.2z" /><path class="s5" d="m208.2 112c-4.5 17.8-11.8 31.3-16.3 30.1c-4.4-1.1-4.3-16.4 0.3-34.2c4.5-17.8 11.9-31.2 16.3-30.1c4.4 1.2 4.3 16.5-0.3 34.2z" /><path class="s5" d="m228.4 132.2c-11.8 14-24.3 23-27.8 20c-3.5-2.9 3.3-16.7 15.1-30.7c11.9-14 24.3-22.9 27.8-20c3.5 3-3.3 16.7-15.1 30.7z" /><path class="s5" d="m240.2 156.9c-15.5 9.8-30.1 14.6-32.5 10.7c-2.4-3.9 8.2-15 23.7-24.7c15.5-9.8 30.1-14.5 32.5-10.7c2.5 3.9-8.1 15-23.7 24.7z" /><path class="s5" d="m247.8 178.6c-17.5 5.5-32.8 6.5-34.2 2.1c-1.4-4.3 11.7-12.4 29.1-18c17.5-5.5 32.8-6.5 34.2-2.1c1.4 4.3-11.7 12.4-29.1 18z" /><path class="s5" d="m249.7 201.4c-18.3 1-33.4-1.8-33.6-6.4c-0.3-4.6 14.3-9.2 32.6-10.2c18.3-1 33.4 1.8 33.6 6.4c0.3 4.6-14.3 9.2-32.6 10.2z" /><path class="s5" d="m245.8 224c-18-3.6-31.8-10.1-30.9-14.6c0.8-4.5 16.2-5.3 34.1-1.7c18 3.5 31.9 10.1 31 14.6c-0.9 4.5-16.2 5.2-34.2 1.7z" /><path class="s5" d="m236.4 244.9c-16.5-8-28.3-17.8-26.3-21.9c2-4.1 17-1 33.5 6.9c16.6 7.9 28.3 17.7 26.4 21.9c-2 4.1-17 1-33.6-6.9z" /><path class="s5" d="m222.1 262.8c-14-11.9-22.9-24.3-20-27.8c3-3.5 16.7 3.2 30.7 15.1c14.1 11.8 23 24.2 20.1 27.7c-3 3.5-16.7-3.2-30.8-15z" /><path class="s5" d="m203.8 276.5c-10.6-14.9-16.2-29.2-12.4-31.9c3.7-2.6 15.3 7.4 26 22.3c10.6 14.9 16.2 29.2 12.4 31.9c-3.7 2.6-15.4-7.3-26-22.3z" /><path class="s5" d="m182.6 285.4c-2.1-18.2 0-33.4 4.5-33.9c4.6-0.5 9.9 13.8 12 32.1c2.1 18.2 0.1 33.4-4.5 33.9c-4.6 0.5-9.9-13.8-12-32.1z" /><path class="s5" d="m155.3 285.9c2.6-18.2 8.3-32.4 12.9-31.8c4.5 0.7 6.1 15.9 3.6 34.1c-2.6 18.1-8.3 32.3-12.9 31.7c-4.5-0.6-6.1-15.9-3.6-34z" /><path class="s5" d="m133.9 273.2c7-17 16.1-29.3 20.4-27.5c4.2 1.7 2 16.9-5 33.8c-7 17-16.1 29.3-20.4 27.5c-4.2-1.7-2-16.9 5-33.8z" /><path class="s5" d="m120.9 246.9c14.3-11.4 28.2-17.8 31.1-14.2c2.8 3.6-6.5 15.7-20.8 27.2c-14.3 11.4-28.2 17.8-31.1 14.2c-2.9-3.5 6.4-15.7 20.8-27.2z" /><path class="s5" d="m110.9 226.3c16.7-7.5 31.8-10.2 33.7-6c1.9 4.1-10.2 13.6-26.9 21.1c-16.7 7.5-31.8 10.2-33.7 6.1c-1.8-4.2 10.2-13.7 26.9-21.2z" /><path class="s5" d="m106.5 203.8c18-3.1 33.3-1.9 34.1 2.6c0.8 4.5-13.3 10.7-31.3 13.8c-18.1 3.1-33.4 1.9-34.2-2.6c-0.7-4.5 13.3-10.7 31.4-13.8z" /><path class="s5" d="m107.7 180.9c18.3 1.6 32.8 6.5 32.4 11.1c-0.3 4.5-15.5 7-33.7 5.5c-18.3-1.5-32.8-6.5-32.4-11c0.4-4.6 15.5-7.1 33.7-5.6z" /><path class="s5" d="m114.7 159.1c17.3 6.1 30.1 14.5 28.6 18.8c-1.5 4.3-16.7 2.9-34.1-3.1c-17.3-6-30.1-14.4-28.6-18.8c1.5-4.3 16.8-2.9 34.1 3.1z" /><path class="s5" d="m126.9 139.7c15.3 10.2 25.6 21.5 23 25.3c-2.5 3.9-16.9-1.3-32.2-11.5c-15.3-10.1-25.6-21.4-23-25.3c2.5-3.8 16.9 1.4 32.2 11.5z" /><path class="s5" d="m143.5 124c12.3 13.6 19.4 27.2 16 30.3c-3.4 3-16.1-5.6-28.3-19.2c-12.3-13.7-19.4-27.2-16-30.3c3.4-3 16.1 5.5 28.3 19.2z" /><path class="s5" d="m165.4 107.2c4.1 17.9 3.8 33.2-0.7 34.2c-4.4 1-11.4-12.6-15.5-30.5c-4.1-17.9-3.8-33.2 0.7-34.2c4.4-1 11.4 12.6 15.5 30.5z" /><path class="s6" d="m225.1 199.7c0 38.5-21.4 69.7-47.8 69.7c-26.4 0-47.8-31.2-47.8-69.7c0-38.5 21.4-69.7 47.8-69.7c26.4 0 47.8 31.2 47.8 69.7z" /><g style="mix-blend-mode: multiply"><path class="s7" d="m179.1 115.2c-0.3 0.4-0.6 0.7-1 0.8c-0.7 0.3-1.5 0-1.9-0.8c-2-3.5-5.1-9.7-5.1-13c0-1.8 0.4-3.4 1.2-4.8c1.2-2.2 3.1-3.6 5.3-3.6c3.6 0 6.5 3.8 6.5 8.4c0 3.3-3.1 9.5-5 13z" /></g><path class="s4" d="m178.2 114.4c-0.2 0.4-0.6 0.7-0.9 0.9c-0.7 0.2-1.5-0.1-2-0.9c-1.9-3.5-5-9.7-5-12.9c0-1.9 0.4-3.5 1.1-4.9c1.2-2.2 3.2-3.6 5.4-3.6c3.6 0 6.5 3.8 6.5 8.5c0 3.2-3.2 9.4-5.1 12.9z" /><path class="s8" d="m177.3 115.3c-0.7 0.2-1.5-0.1-2-0.9c-1.9-3.5-5-9.7-5-12.9c0-1.9 0.4-3.5 1.1-4.9c1.1-0.9 2.4-1.5 3.7-1.5c3.6 0 6.5 3.8 6.5 8.4c0 2.9-2.4 8.2-4.3 11.8z" /><g style="mix-blend-mode: multiply"><path class="s7" d="m210.1 126.3c-0.4 0.3-0.8 0.4-1.2 0.4c-0.8-0.1-1.3-0.7-1.4-1.7c-0.2-4-0.3-10.9 1.1-13.8c0.8-1.6 1.9-2.9 3.2-3.8c2-1.5 4.4-1.9 6.4-1c3.2 1.6 4.2 6.3 2.1 10.5c-1.4 2.9-6.9 7.1-10.2 9.4z" /></g><path class="s4" d="m209.7 125.2c-0.4 0.3-0.8 0.4-1.2 0.4c-0.8-0.1-1.4-0.7-1.4-1.7c-0.2-3.9-0.3-10.9 1.1-13.8c0.8-1.6 1.9-2.9 3.2-3.8c2-1.5 4.4-1.9 6.4-0.9c3.2 1.5 4.1 6.2 2.1 10.4c-1.4 2.9-6.9 7.1-10.2 9.4z" /><path class="s8" d="m208.5 125.6c-0.8-0.1-1.4-0.7-1.4-1.7c-0.2-3.9-0.3-10.9 1.1-13.8c0.8-1.6 1.9-2.9 3.2-3.8c1.4-0.4 2.7-0.4 4 0.2c3.2 1.6 4.2 6.3 2.1 10.5c-1.2 2.6-5.8 6.2-9 8.6z" /><g style="mix-blend-mode: multiply"><path class="s7" d="m233.6 148.2c-0.5 0-1 0-1.3-0.3c-0.7-0.3-0.9-1.1-0.5-2c1.5-3.7 4.5-10 7-12c1.5-1.1 3-1.8 4.6-2c2.4-0.5 4.7 0.2 6.1 1.9c2.2 2.8 1 7.5-2.6 10.3c-2.6 2-9.4 3.4-13.3 4.1z" /></g><path class="s4" d="m233.7 147c-0.5 0.1-1 0-1.3-0.2c-0.7-0.4-0.9-1.2-0.5-2.1c1.5-3.7 4.5-10 7-12c1.5-1.1 3-1.7 4.6-2c2.4-0.4 4.7 0.2 6.1 2c2.2 2.8 1 7.4-2.6 10.3c-2.6 2-9.4 3.3-13.3 4z" /><path class="s8" d="m232.4 146.8c-0.7-0.4-0.9-1.2-0.5-2.1c1.5-3.7 4.5-10 7-12c1.5-1.1 3-1.7 4.6-2c1.4 0.2 2.6 0.9 3.4 2c2.3 2.8 1.1 7.4-2.6 10.3c-2.3 1.8-7.9 3.1-11.9 3.8z" /><g style="mix-blend-mode: multiply"><path class="s7" d="m243.4 177.8c-0.5-0.1-0.8-0.4-1-0.7c-0.5-0.6-0.3-1.5 0.4-2.1c3-2.6 8.4-7 11.6-7.7c1.8-0.3 3.5-0.3 5 0.2c2.4 0.7 4.2 2.3 4.6 4.4c0.8 3.5-2.3 7.2-6.9 8.2c-3.1 0.6-9.9-1.1-13.7-2.3z" /></g><path class="s4" d="m244 176.8c-0.5-0.1-0.8-0.4-1-0.7c-0.5-0.6-0.3-1.5 0.4-2.1c3-2.6 8.4-7 11.6-7.7c1.8-0.3 3.5-0.3 5 0.2c2.3 0.7 4.1 2.3 4.6 4.4c0.8 3.5-2.3 7.2-6.9 8.2c-3.1 0.6-9.9-1.1-13.7-2.3z" /><path class="s8" d="m243 176.1c-0.5-0.6-0.3-1.5 0.4-2.1c3-2.6 8.4-7 11.6-7.7c1.8-0.3 3.5-0.3 5 0.2c1.1 0.8 1.9 1.9 2.2 3.3c0.8 3.5-2.3 7.1-6.9 8.1c-2.8 0.6-8.4-0.7-12.3-1.8z" /><g style="mix-blend-mode: multiply"><path class="s7" d="m242.1 210.1c-0.4-0.4-0.6-0.8-0.7-1.2c-0.1-0.7 0.4-1.4 1.4-1.7c3.8-1 10.6-2.6 13.7-1.8c1.8 0.5 3.3 1.3 4.4 2.3c1.9 1.7 2.8 3.9 2.3 6.1c-0.9 3.4-5.3 5.4-9.8 4.2c-3.1-0.7-8.4-5.2-11.3-7.9z" /></g><path class="s4" d="m243 209.4c-0.4-0.3-0.6-0.7-0.6-1.1c-0.1-0.8 0.4-1.5 1.3-1.7c3.9-1 10.7-2.6 13.8-1.8c1.8 0.4 3.3 1.2 4.4 2.3c1.8 1.6 2.8 3.9 2.2 6c-0.8 3.5-5.2 5.4-9.7 4.3c-3.1-0.8-8.4-5.3-11.4-8z" /><path class="s8" d="m242.4 208.3c-0.1-0.8 0.4-1.5 1.3-1.7c3.9-1 10.7-2.6 13.8-1.8c1.8 0.4 3.3 1.2 4.4 2.3c0.7 1.2 0.9 2.6 0.6 3.9c-0.9 3.5-5.2 5.4-9.8 4.3c-2.8-0.7-7.3-4.3-10.3-7z" /><g style="mix-blend-mode: multiply"><path class="s7" d="m234.9 242.2c-0.2-0.5-0.2-0.9-0.1-1.3c0.2-0.7 1-1.1 1.9-1c4 0.8 10.7 2.4 13.2 4.5c1.4 1.1 2.4 2.5 3 4c0.9 2.3 0.7 4.7-0.7 6.4c-2.3 2.7-7 2.5-10.6-0.5c-2.5-2-5.3-8.4-6.7-12.1z" /></g><path class="s4" d="m236 242c-0.2-0.4-0.2-0.9 0-1.3c0.2-0.7 0.9-1.1 1.9-0.9c3.9 0.8 10.7 2.3 13.2 4.4c1.3 1.2 2.3 2.6 2.9 4c0.9 2.3 0.8 4.7-0.6 6.4c-2.3 2.8-7.1 2.6-10.7-0.4c-2.5-2.1-5.2-8.4-6.7-12.2z" /><path class="s8" d="m236 240.7c0.2-0.7 0.9-1.1 1.9-0.9c3.9 0.8 10.7 2.3 13.2 4.4c1.3 1.2 2.3 2.6 2.9 4c0.1 1.4-0.3 2.8-1.2 3.8c-2.3 2.8-7.1 2.6-10.6-0.4c-2.3-1.8-4.7-7.1-6.2-10.9z" /><g style="mix-blend-mode: multiply"><path class="s7" d="m209.1 271.4c0.1-0.5 0.3-0.9 0.6-1.2c0.5-0.5 1.3-0.6 2.1 0c3.2 2.4 8.6 6.8 9.9 9.7c0.8 1.7 1 3.4 0.9 4.9c-0.2 2.5-1.3 4.6-3.4 5.5c-3.2 1.5-7.4-0.8-9.4-5c-1.3-3-1-9.9-0.7-13.9z" /></g><path class="s4" d="m210.2 271.8c0.1-0.5 0.3-1 0.6-1.2c0.5-0.6 1.3-0.6 2.1 0c3.2 2.4 8.6 6.8 9.9 9.7c0.8 1.6 1 3.3 0.9 4.9c-0.2 2.5-1.3 4.6-3.4 5.5c-3.2 1.4-7.4-0.8-9.4-5.1c-1.3-2.9-1-9.8-0.7-13.8z" /><path class="s8" d="m210.8 270.6c0.5-0.6 1.3-0.6 2.1 0c3.2 2.4 8.6 6.8 9.9 9.7c0.8 1.6 1 3.3 0.9 4.9c-0.5 1.3-1.5 2.3-2.7 2.9c-3.3 1.5-7.5-0.8-9.4-5c-1.2-2.7-1.1-8.5-0.8-12.5z" /><g style="mix-blend-mode: multiply"><path class="s7" d="m172.7 283.8c0.2-0.4 0.6-0.7 1-0.8c0.7-0.3 1.5 0 1.9 0.9c1.8 3.6 4.8 9.9 4.7 13.1c-0.1 1.8-0.6 3.4-1.4 4.8c-1.2 2.1-3.2 3.5-5.4 3.4c-3.6-0.1-6.4-3.9-6.2-8.6c0.1-3.2 3.4-9.3 5.4-12.8z" /></g><path class="s4" d="m173.5 284.6c0.3-0.4 0.6-0.7 1-0.8c0.7-0.3 1.5 0 1.9 0.9c1.9 3.6 4.8 9.9 4.7 13.1c-0.1 1.8-0.6 3.5-1.3 4.8c-1.3 2.2-3.3 3.5-5.5 3.5c-3.6-0.2-6.4-4-6.2-8.7c0.1-3.2 3.4-9.3 5.4-12.8z" /><path class="s8" d="m174.5 283.8c0.7-0.3 1.5 0 1.9 0.9c1.9 3.6 4.8 9.9 4.7 13.1c-0.1 1.8-0.6 3.5-1.3 4.8c-1.1 0.9-2.4 1.4-3.8 1.4c-3.6-0.1-6.4-4-6.2-8.6c0.1-2.9 2.7-8.1 4.7-11.6z" /><g style="mix-blend-mode: multiply"><path class="s7" d="m133.1 267c0.4-0.3 0.9-0.4 1.2-0.3c0.8 0.1 1.4 0.7 1.4 1.7c0.1 4-0.1 10.9-1.6 13.8c-0.8 1.6-2 2.8-3.3 3.7c-2 1.4-4.4 1.7-6.4 0.7c-3.1-1.7-4-6.4-1.8-10.5c1.5-2.8 7.2-6.9 10.5-9.1z" /></g><path class="s4" d="m133.5 268.1c0.4-0.3 0.9-0.4 1.2-0.3c0.8 0.1 1.4 0.7 1.4 1.7c0 4-0.1 10.9-1.6 13.8c-0.8 1.6-2 2.8-3.3 3.7c-2 1.4-4.4 1.7-6.4 0.7c-3.1-1.7-4-6.4-1.8-10.5c1.5-2.8 7.2-6.9 10.5-9.1z" /><path class="s8" d="m134.7 267.8c0.8 0.1 1.4 0.7 1.4 1.7c0 4-0.1 10.9-1.6 13.8c-0.8 1.6-2 2.8-3.3 3.7c-1.3 0.3-2.7 0.2-4-0.4c-3.1-1.7-4-6.4-1.8-10.5c1.4-2.5 6-6 9.3-8.3z" /><g style="mix-blend-mode: multiply"><path class="s7" d="m114.5 235.6c0.5-0.1 0.9 0 1.2 0.2c0.7 0.4 0.9 1.3 0.5 2.2c-1.7 3.6-4.9 9.8-7.5 11.7c-1.4 1-3 1.7-4.5 1.9c-2.5 0.3-4.8-0.4-6.1-2.2c-2.1-2.9-0.8-7.4 2.9-10.2c2.6-1.9 9.5-3.1 13.5-3.6z" /></g><path class="s4" d="m114.3 236.7c0.5 0 1 0.1 1.3 0.3c0.6 0.4 0.9 1.2 0.5 2.1c-1.7 3.6-4.9 9.8-7.5 11.7c-1.4 1.1-3 1.7-4.6 1.9c-2.4 0.4-4.7-0.3-6-2.1c-2.2-2.9-0.8-7.5 2.9-10.3c2.6-1.9 9.5-3 13.4-3.6z" /><path class="s8" d="m115.6 237c0.6 0.4 0.9 1.2 0.5 2.1c-1.7 3.6-4.9 9.8-7.5 11.7c-1.4 1.1-3 1.7-4.6 1.9c-1.4-0.2-2.6-0.9-3.4-2.1c-2.1-2.8-0.8-7.4 3-10.2c2.3-1.7 8-2.8 12-3.4z" /><g style="mix-blend-mode: multiply"><path class="s7" d="m109.9 202.6c0.5 0.1 0.9 0.4 1.1 0.8c0.4 0.6 0.2 1.4-0.5 2.1c-3.1 2.5-8.7 6.7-11.9 7.3c-1.7 0.3-3.4 0.1-4.9-0.3c-2.4-0.8-4.1-2.5-4.5-4.6c-0.7-3.6 2.5-7.1 7.1-7.9c3.2-0.6 9.8 1.3 13.6 2.6z" /></g><path class="s4" d="m109.3 203.6c0.5 0.1 0.9 0.4 1.1 0.8c0.3 0.6 0.2 1.4-0.6 2c-3.1 2.6-8.6 6.8-11.8 7.3c-1.8 0.4-3.5 0.2-4.9-0.3c-2.4-0.7-4.2-2.4-4.6-4.6c-0.6-3.5 2.6-7 7.2-7.9c3.2-0.5 9.8 1.4 13.6 2.7z" /><path class="s8" d="m110.4 204.4c0.3 0.6 0.2 1.4-0.6 2c-3.1 2.6-8.6 6.8-11.8 7.3c-1.8 0.4-3.5 0.2-4.9-0.3c-1.2-0.8-1.9-2-2.2-3.3c-0.6-3.6 2.6-7.1 7.1-7.9c2.9-0.6 8.5 0.9 12.4 2.2z" /><g style="mix-blend-mode: multiply"><path class="s7" d="m112.3 170.4c0.4 0.4 0.6 0.8 0.6 1.2c0.1 0.7-0.4 1.4-1.3 1.7c-3.9 0.9-10.8 2.2-13.9 1.3c-1.7-0.5-3.2-1.3-4.3-2.4c-1.8-1.7-2.6-4-2-6.1c0.9-3.5 5.4-5.3 9.8-4c3.2 0.9 8.3 5.5 11.1 8.3z" /></g><path class="s4" d="m111.4 171c0.3 0.4 0.5 0.8 0.5 1.2c0.1 0.8-0.4 1.4-1.3 1.7c-3.9 0.9-10.7 2.2-13.8 1.3c-1.8-0.4-3.3-1.3-4.4-2.4c-1.8-1.7-2.6-4-2-6.1c0.9-3.5 5.4-5.2 9.9-4c3.1 0.9 8.2 5.6 11.1 8.3z" /><path class="s8" d="m111.9 172.2c0.1 0.8-0.4 1.4-1.3 1.7c-3.9 0.9-10.7 2.2-13.8 1.3c-1.8-0.4-3.3-1.3-4.4-2.4c-0.6-1.3-0.8-2.6-0.4-4c0.9-3.4 5.4-5.2 9.8-4c2.8 0.8 7.2 4.6 10.1 7.4z" /><g style="mix-blend-mode: multiply"><path class="s7" d="m126.6 142.4c0.2 0.5 0.2 1 0.1 1.3c-0.3 0.7-1 1.2-2 0.9c-3.9-0.9-10.6-2.6-13-4.8c-1.4-1.2-2.3-2.6-2.9-4.1c-0.8-2.3-0.6-4.7 0.9-6.4c2.4-2.6 7.1-2.3 10.6 0.8c2.4 2.1 5 8.6 6.3 12.3z" /></g><path class="s4" d="m125.5 142.6c0.2 0.4 0.2 0.9 0 1.3c-0.3 0.7-1 1.1-2 0.8c-3.8-0.8-10.6-2.6-13-4.8c-1.3-1.2-2.3-2.6-2.8-4.1c-0.9-2.3-0.6-4.7 0.8-6.3c2.4-2.7 7.2-2.4 10.7 0.7c2.4 2.1 4.9 8.6 6.3 12.4z" /><path class="s8" d="m125.5 143.9c-0.3 0.7-1 1.1-2 0.8c-3.8-0.8-10.6-2.6-13-4.8c-1.3-1.2-2.3-2.6-2.8-4.1c0-1.4 0.4-2.7 1.3-3.7c2.4-2.7 7.2-2.4 10.6 0.7c2.2 1.9 4.5 7.3 5.9 11.1z" /><g style="mix-blend-mode: multiply"><path class="s7" d="m149.7 120.3c0 0.5-0.2 0.9-0.5 1.1c-0.6 0.6-1.4 0.6-2.2 0c-3.1-2.5-8.4-7.1-9.6-10c-0.7-1.7-0.9-3.4-0.8-5c0.3-2.4 1.5-4.5 3.6-5.3c3.3-1.4 7.4 1 9.2 5.3c1.3 3 0.7 9.9 0.3 13.9z" /></g><path class="s4" d="m148.6 119.9c0 0.5-0.2 0.9-0.5 1.1c-0.6 0.6-1.4 0.6-2.2 0c-3.1-2.5-8.4-7.1-9.6-10c-0.7-1.7-0.9-3.4-0.7-5c0.2-2.4 1.5-4.5 3.5-5.3c3.3-1.4 7.5 1 9.2 5.3c1.3 3 0.8 9.9 0.3 13.9z" /><path class="s8" d="m148.1 121c-0.6 0.6-1.4 0.6-2.2 0c-3.1-2.5-8.4-7.1-9.6-10c-0.7-1.7-0.9-3.4-0.7-5c0.6-1.2 1.5-2.2 2.8-2.8c3.3-1.3 7.5 1 9.2 5.3c1.1 2.7 0.8 8.5 0.5 12.5z" /></svg>