<svg version="1.2" xmlns="http://www.w3.org/2000/svg" viewBox="0 0 306 478" width="306" height="478"><style>.s0{fill:#fcda01}.s1{fill:#febd01}.s2{fill:#231f20}.s3{fill:#ffffff}.s4{fill:#01982f}</style><path class="s0" d="m300.9 280c-3.4 15-8.6 29.9-13.7 44.2c-11.1 31.2-21.6 60.6-14.4 92.4c3.5 15.3 8.2 36.1-8.1 51.1q-0.3 0.1-0.6 0.1c-8.9 1.7-19.2 0.8-29.5-1.5c-4.4-1-8.8-2.3-13.1-3.7q0 0-0.1 0q-0.6-0.2-1.3-0.4c-2.6-0.9-5.2-1.8-7.6-2.7q-1.8-0.8-3.6-1.5q-0.9-0.4-1.8-0.7q-2.5-1.1-4.9-2.2c-2.7-1.2-5.1-2.3-7.3-3.4q-1.9-1-3.7-2q-1.8-1-3.6-2q-1.7-1-3.3-1.9q-0.4-0.3-0.9-0.6q-1.5-0.9-2.9-1.8q-1.8-1.1-3.5-2.3q-1.6-1.1-3.2-2.3q-2.1-1.5-4.1-3q-1.3-1-2.6-2c-52.9-42.1-78.3-113.9-85-179.9c-1.4-14.3-1.4-29.2 0.3-43.9c0.9-8.3 2.4-16.6 4.4-24.7q0.8-3.6 1.9-7.2q1.5-5.3 3.3-10.4q2.2-6.1 4.8-12.1c8.2-18.4 19.8-34.8 35-47.1q4.6-3.8 9.7-7q0.1-0.1 0.2-0.2q0.1 0 0.2-0.1q2.4-1.6 5-3q1.5-0.9 3.1-1.7q1.1-0.6 2.3-1.1c10.7-5.2 22.7-8.8 36-10.3c10-1.1 19.4-1.1 28.3 0c7.2 2.5 14.1 5.7 20.7 9.7c5.1 3.1 10 6.7 14.7 10.7c20.2 17.5 35.7 43.1 44.8 74c9.7 32.7 11.2 69.4 4.1 100.5z" /><path class="s1" d="m152.3 95.4c-0.1 16.7-4.2 87.9-69.9 114.6c5.4-47.7 27.6-94.1 69.9-114.6z" /><path class="s1" d="m300.9 280c-3.4 15-8.6 29.9-13.7 44.2c-11.1 31.2-21.6 60.6-14.4 92.4c3.5 15.3 8.2 36.1-8.1 51.1q-0.3 0.1-0.6 0.1c-8.9 1.7-19.2 0.8-29.5-1.5c-4.4-1-8.8-2.3-13.1-3.7q-0.7-0.2-1.4-0.4c-2.6-0.9-5.2-1.8-7.6-2.7q-1.8-0.8-3.6-1.5q-0.9-0.4-1.8-0.7q-2.5-1.1-4.9-2.2c-2.7-1.2-5.1-2.3-7.3-3.4q-1.9-1-3.7-2q-1.8-1-3.6-2q-1.7-1-3.3-1.9q-0.4-0.3-0.9-0.6q-1.5-0.9-2.9-1.8q-1.8-1.1-3.5-2.3q-1.6-1.1-3.2-2.3q-2.1-1.5-4.1-3q-1.3-1-2.6-2c21.7 8.7 51.6 16.1 67.7 3.4c14.7-11.7 11.8-28.4 7.8-46c-11.8-52 20.6-97.6 30-147.5c5.3-28.7 3.9-60.6-4.5-89.6q-2-7.1-4.6-14c-6.3-16.9-15-32.5-26.2-45.3c5.1 3.1 10 6.7 14.7 10.7c20.2 17.5 35.7 43.1 44.8 74c9.7 32.7 11.2 69.4 4.1 100.5z" /><path fill-rule="evenodd" class="s2" d="m300.9 280c-3.4 15-8.6 29.9-13.7 44.2c-11.1 31.2-21.6 60.6-14.4 92.4c3.5 15.3 8.2 36.1-8.1 51.1q-1.1 1-2.3 2c-7.6 6-17.5 8.3-27.8 8.3c-25.9 0-55.3-14-62.7-17.8c-91.4-46.4-112-157.7-116.7-203.4c-2.1-20.9-1-42.1 2.9-62.2q0.3-1.5 0.7-3c0.5-2.8 1.2-5.5 1.9-8.3q1.1-4.3 2.5-8.6c3.2-10.6 7.4-20.7 12.3-29.9c11.1-20.6 25.6-36.6 43-47.6q4.4-2.7 9-5.1q7.2-3.7 15-6.3q0.8-0.3 1.6-0.5q2-0.7 4-1.2c1.4-0.4 2.8-0.8 4.2-1.1q0.1 0 0.1 0q0.4-0.1 0.9-0.2q7-1.7 14.4-2.5c17.3-2 33.7-0.3 48.9 4.8c7.2 2.5 14.1 5.7 20.7 9.7c5.1 3.1 10 6.7 14.7 10.7c20.2 17.5 35.7 43.1 44.8 74c9.7 32.7 11.2 69.4 4.1 100.5zm-17.7-96.5c-4.9-16.6-11.5-31.1-19.7-43.4c-5.8-8.8-12.4-16.5-19.7-22.9c-17.5-15.3-38.7-23.5-62.5-23.5q-5.9 0-12 0.7q-9 1-17.1 3.3q-1.3 0.4-2.6 0.8c-0.9 0.3-1.9 0.6-2.8 0.9q-2.5 0.8-4.9 1.8q-0.1 0.1-0.2 0.1q-0.1 0-0.2 0.1q-4.4 1.7-8.6 3.9c-24.3 12.7-41.5 34.6-52 60.9c-1.4 3.2-2.5 6.6-3.7 9.9c-0.9 3-1.8 6.1-2.7 9.2q-0.6 2.6-1.3 5.2c-4.8 20.8-6 43.1-3.8 64.9c4.4 43.4 23.8 148.9 108.9 192.1c11.1 5.7 27.7 12.4 43.1 15.1q0.1 0 0.1 0c12.7 2.3 24.6 1.9 32.1-4c11.1-8.9 9.2-21.7 5.3-38.9c-8.1-35.7 3.6-68.5 14.9-100.3c5-13.9 10.1-28.3 13.3-42.5c6.5-28.9 5.1-62.9-3.9-93.4z" /><path class="s3" d="m144.9 85.4q-137.8-14.1-137.2 109.8q122.2-5.9 137.2-109.8z" /><path class="s4" d="m145.6 111.9c-9.9 27.8-29.2 50.2-56.9 66.2q-6.8 3.9-14.2 7.2q-0.4 0.2-0.9 0.5c-5 2.2-10 4.1-14.8 5.8c-9.4 3.3-18.2 5.5-25.7 7.1q-0.1 0-0.1 0q-13.5 1.4-22.6 1q2.1-11.1 5.2-20.9c15.6-48.5 49.9-71.7 79.5-82.9q0 0 0 0q28-10.5 51.7-10.2c0.5 9.5 0 18.2-1.2 26.2z" /><path fill-rule="evenodd" class="s2" d="m153 79.1l-0.3 2l-0.3 1.9l-0.1 0.6l-0.4 2.8q-0.3 1.7-0.6 3.5q-0.2 1.1-0.4 2.2q-0.4 2.3-0.9 4.4q-0.2 1-0.4 2c-1.1 4.6-2.4 9.1-4 13.4c-9.9 27.8-29.2 50.2-56.9 66.2q-6.8 3.9-14.2 7.2q-0.4 0.2-0.9 0.5c-5 2.2-10 4.1-14.8 5.8c-9.4 3.3-18.2 5.5-25.7 7.1q-0.1 0-0.1 0c-14.4 3.1-24.3 3.6-25 3.6l-7.4 0.4v-7.4c-0.2-36.3 11-65 33.2-85.2c12-10.8 25.9-18.1 39.7-23q4.8-1.7 9.6-3c4.4-1.2 8.7-2.2 12.9-3q4.4-0.8 8.6-1.4c12.4-1.8 23.3-2.1 30.7-1.9c3.6 0 6.4 0.2 8.2 0.3q1.7 0.2 2.1 0.2l2.5 0.3l3.6 0.3l1 0.1zm-16.4 13.1q-1.7-0.1-3.7-0.1q-2.5 0-5.3 0.1c-8.5 0.2-19.6 1.1-31.4 3.6q-0.5 0.1-1 0.2q0 0 0 0c-17.6 3.8-36.7 11-51.8 24.8c-15.7 14.3-25 33.7-27.7 58.1q-0.5 4.2-0.7 8.6c10-1.3 28.5-4.6 48.2-12.7q2.5-1 5.1-2.1q6.6-3 12.7-6.4q8.6-4.9 15.9-10.6c16.4-12.6 28.1-28.4 35-47.1q0.6-1.6 1.1-3.2q1.8-5.2 3-10.8q0.3-1.2 0.6-2.4z" /><path class="s3" d="m27.9 9.3q25.1 107.5 118.3 74.8q-36.2-90.5-118.3-74.8z" /><path class="s4" d="m148.9 80.9q-92.3 14.2-121.3-73.1c10-4 19.2-6.3 27.8-7c25 2.3 48 14.2 67.6 35.2c5 5.3 9.4 10.8 13.1 16q0 0 0 0.1q8.9 15.7 12.8 28.8z" /><path fill-rule="evenodd" class="s2" d="m155.6 88.4l-3.5 1.2l-0.8 0.3l-1.6 0.6l-1.1 0.3c-0.6 0.2-1.1 0.4-1.6 0.6q-1.7 0.6-3.4 1.1q-3.9 1.2-7.7 2q-8.9 2.2-17.4 2.7q-2.9 0.2-5.7 0.2c-5.7 0-11.3-0.6-16.7-1.7q-0.2 0-0.3 0q-6.7-1.5-13-4q-4.2-1.7-8.2-3.9q-0.5-0.3-1.1-0.7c-39.6-22.5-52-73.9-52.6-76.2l-1.6-7.2l7.2-1.4c9.9-1.8 19.6-2.4 28.9-1.5c25 2.3 48 14.2 67.6 35.2c5 5.3 9.4 10.8 13.1 16q0 0 0 0.1c4.5 6.3 8 12.2 10.7 17c2.3 4.3 3.9 7.7 4.9 9.8q0.5 1.3 0.8 1.9q0.1 0.2 0.2 0.3q0.1 0.3 0.1 0.4l0.5 1.3zm-74-13.1q6.9 3.8 14.5 5.8c8.7 2.2 18.1 2.6 28 1.2q6-0.8 12.3-2.5q-0.5-1-1.1-2.1c-4.3-8.1-11.9-20.6-22.9-32.3c-21.8-23.2-47.1-33.4-75.4-30.3c2.9 8.5 8.6 22.9 18.3 36.2c6.7 9.3 15.4 18.1 26.3 24z" /><path class="s2" d="m150.3 92.3c-1.9-5.6-2.9-11.4-3.3-17.3c-0.5-5.9-0.2-12 0.9-18c0.2-1.6 0.5-3.1 0.9-4.6c0.4-1.5 0.7-3 1.2-4.5c1-2.9 2-5.9 3.4-8.8c1.6-3.8 3.7-7.3 6-10.8c2-2.9 6.3-3.3 8.8-0.8l4.7 4.9c2.3 2.3 2.1 6.1-0.3 8.2c-2.2 2-4.3 4.1-6.2 6.4c-1.7 1.9-3 4.1-4.5 6.2c-0.7 1.1-1.2 2.2-1.9 3.4c-0.7 1.1-1.2 2.3-1.7 3.5c-2.3 4.7-3.9 9.9-4.9 15.2c-1.1 5.4-1.5 11-1.2 16.5z" /></svg>