<svg xmlns="http://www.w3.org/2000/svg" viewBox="0 0 270.71 68.06"><defs><style>.cls-1{isolation:isolate;}.cls-2{fill:#e9c500;}</style></defs><g id="圖層_2" data-name="圖層 2"><g id="圖層_1-2" data-name="圖層 1"><g class="cls-1"><g class="cls-1"><path d="M6.75,13.56q3.5-7.44,14.59-7.44A49.78,49.78,0,0,1,33.65,7.77Q40.12,9.4,49,12.28c-.46,1-1.44,3.65-2.94,7.81s-2.31,6.25-2.44,6.25a27,27,0,0,0-2.86-1.64c-1.74-.92-3.63-1.82-5.69-2.7a19,19,0,0,0-5-1.53,36.44,36.44,0,0,1-4.08-1,20.42,20.42,0,0,0-4.77-.88,3.56,3.56,0,0,0-2.18.57,2.56,2.56,0,0,0-1.28,2.12,4.07,4.07,0,0,0,1.06,2.46,16.16,16.16,0,0,0,2.78,2.64A42,42,0,0,0,25.4,29c1.4.83,2.77,1.58,4.13,2.25a34.27,34.27,0,0,1,7.26,4.7,25.73,25.73,0,0,1,4.8,5.27,20.17,20.17,0,0,1,2.52,5.33,18.07,18.07,0,0,1,.79,5.1,12.69,12.69,0,0,1-1,5.19,12,12,0,0,1-5.59,5.86,19.66,19.66,0,0,1-8.82,1.83,40.25,40.25,0,0,1-6.6-.61q-3.67-.62-7.1-1.53T8.54,60.23Q4.75,59,1.87,58.09c.31-.64.82-1.92,1.52-3.82s1.29-3.56,1.78-5,.94-2.62,1.34-3.69A5.14,5.14,0,0,1,7.25,44a43.74,43.74,0,0,0,5.87,3.14,26.6,26.6,0,0,0,7.72,2.74,22.94,22.94,0,0,1,3.41.75c1.6.43,2.7.73,3.29.87a8.77,8.77,0,0,0,2.11.22,3.65,3.65,0,0,0,2.19-.56A2.83,2.83,0,0,0,33.25,49q0-2.56-6.54-6a63.07,63.07,0,0,1-8.89-5.86,44.2,44.2,0,0,1-8.56-8.72,16.55,16.55,0,0,1-3.67-9.89A11.51,11.51,0,0,1,6.75,13.56Z"/><path d="M44.5,23l15.34,1.78q-.57,7.41-.56,12.22c0,1.61,0,3,.14,4.16a23.56,23.56,0,0,0,.45,3.19,14.16,14.16,0,0,0,.75,2.46q2,4.47,3.59,4.47c.84,0,1.69-1.06,2.57-3.19.58-1.47,1.1-2.93,1.56-4.35a35.24,35.24,0,0,0,1.06-4.08A37.89,37.89,0,0,0,70,35.44c.13-1.54.19-3.23.19-5.06s0-3.26-.06-4.29l13.06.79q1,6.47,1.22,7.79A23.75,23.75,0,0,1,84.56,38,46.17,46.17,0,0,1,82.9,48.12a20,20,0,0,1-3.59,7.16,19.11,19.11,0,0,1-5.38,5.25,18.82,18.82,0,0,1-9.47,2.31,25.16,25.16,0,0,1-7.29-1.06,22.27,22.27,0,0,1-6.52-3.16,14.16,14.16,0,0,1-4.45-5.06,22.67,22.67,0,0,1-2.33-6.81,46.69,46.69,0,0,1-.66-8.19c0-1.79.06-3.52.18-5.18s.26-3.37.45-5.11S44.25,24.78,44.5,23Z"/><path d="M108.68,24.81a13.19,13.19,0,0,1,3.61,3.55,26,26,0,0,1,2.49,4.19c.58,1.28,1,2.2,1.15,2.76l-11.59,2.57a2.5,2.5,0,0,0-1.66-2.07,8.37,8.37,0,0,0-2.87-.5q-7.94.75-7.94,9.47.22,6.91,4.34,7.69a6.71,6.71,0,0,0,3.57-1,9.16,9.16,0,0,0,2.73-2.58,15.62,15.62,0,0,0,1.89-3.61L116,47.66c-.13.41-.43,1.25-.91,2.5a22.13,22.13,0,0,1-3.8,5.59,16.64,16.64,0,0,1-6.64,4.91,24.06,24.06,0,0,1-8.75,1.72,18.52,18.52,0,0,1-12.31-4.54A12.6,12.6,0,0,1,80,52.91,16.07,16.07,0,0,1,78.93,47a23.3,23.3,0,0,1,.91-6.41,32.15,32.15,0,0,1,2.22-5.75,28.16,28.16,0,0,1,3.78-5.76,21.41,21.41,0,0,1,4.33-3.91,17.33,17.33,0,0,1,4.64-2.23,16.4,16.4,0,0,1,4.78-.72A16.68,16.68,0,0,1,108.68,24.81Z"/><path d="M140.68,24.81a13.19,13.19,0,0,1,3.61,3.55,26,26,0,0,1,2.49,4.19c.58,1.28,1,2.2,1.15,2.76l-11.59,2.57a2.5,2.5,0,0,0-1.66-2.07,8.37,8.37,0,0,0-2.87-.5q-7.94.75-7.94,9.47.22,6.91,4.34,7.69a6.71,6.71,0,0,0,3.57-1,9.16,9.16,0,0,0,2.73-2.58,15.62,15.62,0,0,0,1.89-3.61L148,47.66c-.13.41-.43,1.25-.91,2.5a22.13,22.13,0,0,1-3.8,5.59,16.64,16.64,0,0,1-6.64,4.91,24.06,24.06,0,0,1-8.75,1.72,18.52,18.52,0,0,1-12.31-4.54A12.6,12.6,0,0,1,112,52.91,16.07,16.07,0,0,1,110.93,47a23.3,23.3,0,0,1,.91-6.41,32.15,32.15,0,0,1,2.22-5.75,28.16,28.16,0,0,1,3.78-5.76,21.41,21.41,0,0,1,4.33-3.91,17.33,17.33,0,0,1,4.64-2.23,16.4,16.4,0,0,1,4.78-.72A16.68,16.68,0,0,1,140.68,24.81Z"/><path d="M174.43,44.66,182,53.75a9.84,9.84,0,0,1-4.29,4.81A28.73,28.73,0,0,1,169.61,62a35.76,35.76,0,0,1-9.33,1.26,22.88,22.88,0,0,1-7.36-1.09,10.46,10.46,0,0,1-5-3.31,15.23,15.23,0,0,1-3-9.76,26,26,0,0,1,1.71-9.23,17.26,17.26,0,0,1,3.6-6.36,23.44,23.44,0,0,1,5-3.59,23.93,23.93,0,0,1,5.54-2.16,24.27,24.27,0,0,1,5.91-.72,22.33,22.33,0,0,1,7.55,1.27A18.57,18.57,0,0,1,180.43,32L163.28,52.47a10.24,10.24,0,0,0,4.33-.95,13.09,13.09,0,0,0,3.76-2.72A19.84,19.84,0,0,0,174.43,44.66Zm-8.65-7.28a6.73,6.73,0,0,0-3.13-.79,8.05,8.05,0,0,0-3.26.69,5.13,5.13,0,0,0-2.24,1.63,8.77,8.77,0,0,0-1.94,5.5,10.14,10.14,0,0,0,.22,2.09c.15.67.4,1.58.75,2.75Z"/><path d="M212.68,38.12c-.62-.22-2.14-.71-4.54-1.45s-4.56-1.38-6.44-1.92-4-1.06-6.24-1.56a26.46,26.46,0,0,0-5.31-.75,3,3,0,0,0-1.53.31q-1.53,1.16-1.53,2.13,0,1.53,3.06,2.64a34.42,34.42,0,0,0,7.44,1.64,24.43,24.43,0,0,1,9.7,2.81,14.28,14.28,0,0,1,5.36,5,11.52,11.52,0,0,1,1.66,5.86,9.31,9.31,0,0,1-.85,4q-3.61,7.69-13.9,7.69a37.38,37.38,0,0,1-6.35-.61q-3.53-.62-6.76-1.5c-2.16-.59-4.45-1.29-6.89-2.08l-6.81-2.22q.81-1.68,2.06-4.07c.83-1.6,1.64-3.15,2.42-4.68a16.55,16.55,0,0,0,1.17-2.5,6.7,6.7,0,0,0,2.27,1.36c.9.35,2.23.75,4,1.22a34.86,34.86,0,0,1,4,1.27,17.92,17.92,0,0,0,6.28,1.12,16.73,16.73,0,0,0,3.81-.42c1.21-.28,1.86-.51,1.94-.7,0-.54-.92-1.08-2.76-1.61a42.68,42.68,0,0,0-6.18-1.24A32.87,32.87,0,0,1,183.92,46a17.86,17.86,0,0,1-6.67-4.26,9.52,9.52,0,0,1-2.75-6.94,15.69,15.69,0,0,1,1.59-6.59,11.1,11.1,0,0,1,5.25-5.58,18.6,18.6,0,0,1,8.37-1.74,45,45,0,0,1,11.6,1.6q6,1.59,16.25,4.94c-.15.31-.72,1.64-1.72,4s-1.75,4.06-2.25,5.14S212.79,38.12,212.68,38.12Z"/><path d="M247.87,38.12c-.62-.22-2.14-.71-4.55-1.45s-4.55-1.38-6.43-1.92-4-1.06-6.24-1.56a26.46,26.46,0,0,0-5.31-.75,3,3,0,0,0-1.53.31q-1.53,1.16-1.53,2.13,0,1.53,3.06,2.64a34.42,34.42,0,0,0,7.44,1.64,24.43,24.43,0,0,1,9.7,2.81,14.28,14.28,0,0,1,5.36,5,11.61,11.61,0,0,1,1.66,5.86,9.46,9.46,0,0,1-.85,4q-3.61,7.69-13.9,7.69a37.38,37.38,0,0,1-6.35-.61c-2.35-.41-4.61-.91-6.76-1.5s-4.46-1.29-6.89-2.08l-6.82-2.22c.55-1.12,1.23-2.48,2.07-4.07s1.64-3.15,2.42-4.68a16.55,16.55,0,0,0,1.17-2.5,6.6,6.6,0,0,0,2.27,1.36c.9.35,2.22.75,4,1.22a35.15,35.15,0,0,1,4,1.27,17.88,17.88,0,0,0,6.28,1.12,16.85,16.85,0,0,0,3.81-.42c1.21-.28,1.86-.51,1.94-.7,0-.54-.92-1.08-2.77-1.61a42.53,42.53,0,0,0-6.17-1.24A32.87,32.87,0,0,1,219.11,46a18,18,0,0,1-6.68-4.26,9.57,9.57,0,0,1-2.75-6.94,15.56,15.56,0,0,1,1.6-6.59,11,11,0,0,1,5.25-5.58,18.6,18.6,0,0,1,8.37-1.74,45,45,0,0,1,11.6,1.6q6,1.59,16.25,4.94c-.15.31-.72,1.64-1.72,4s-1.75,4.06-2.25,5.14S248,38.12,247.87,38.12Z"/></g><g class="cls-1"><path d="M256.12,40.19,252,5.62,270.71,0l-3.84,39.16Zm4.62,8.69a9.15,9.15,0,0,1,3.83.73,8.8,8.8,0,0,1,2.64,1.78,7.37,7.37,0,0,1,1.41,1.83,4.69,4.69,0,0,1,.37,1.87,7.93,7.93,0,0,1-.65,3.08,11.5,11.5,0,0,1-1.61,2.72,3.24,3.24,0,0,1-1.77,1.3,20.13,20.13,0,0,1-2.44.25,7.32,7.32,0,0,1-4.95-1.61,6.64,6.64,0,0,1-2.2-4.39,10.1,10.1,0,0,1,1.29-5A4.89,4.89,0,0,1,260.74,48.88Z"/></g></g><g class="cls-1"><g class="cls-1"><path class="cls-2" d="M4.88,17.12Q8.38,9.7,19.47,9.69a49.81,49.81,0,0,1,12.31,1.64Q38.25,13,47.12,15.84c-.45,1.05-1.43,3.65-2.93,7.82s-2.31,6.25-2.44,6.25a23.5,23.5,0,0,0-2.86-1.64q-2.61-1.39-5.69-2.71a19.34,19.34,0,0,0-5-1.53,33.72,33.72,0,0,1-4.08-1,20.28,20.28,0,0,0-4.77-.87,3.56,3.56,0,0,0-2.18.56,2.56,2.56,0,0,0-1.28,2.12,4.07,4.07,0,0,0,1.06,2.46A16.16,16.16,0,0,0,19.72,30a40.68,40.68,0,0,0,3.81,2.56c1.4.83,2.77,1.58,4.13,2.25a34.66,34.66,0,0,1,7.26,4.7,25.73,25.73,0,0,1,4.8,5.27,20.28,20.28,0,0,1,2.51,5.33,17.76,17.76,0,0,1,.8,5.11,12.68,12.68,0,0,1-1,5.18,12,12,0,0,1-5.59,5.86,19.66,19.66,0,0,1-8.82,1.83A40.46,40.46,0,0,1,21,67.45a70.52,70.52,0,0,1-7.09-1.53Q10.47,65,6.67,63.8L0,61.66c.31-.65.82-1.93,1.52-3.83s1.29-3.56,1.78-5,.93-2.62,1.34-3.68.65-1.6.74-1.6a43.74,43.74,0,0,0,5.87,3.14A26.6,26.6,0,0,0,19,53.47a22.94,22.94,0,0,1,3.41.75c1.6.44,2.7.73,3.29.87a8.77,8.77,0,0,0,2.11.22A3.65,3.65,0,0,0,30,54.75a2.83,2.83,0,0,0,1.41-2.19q0-2.56-6.54-6A62.2,62.2,0,0,1,16,40.7,43.93,43.93,0,0,1,7.39,32a16.52,16.52,0,0,1-3.67-9.89A11.4,11.4,0,0,1,4.88,17.12Z"/><path class="cls-2" d="M42.62,26.59,58,28.37q-.57,7.41-.56,12.22c0,1.61,0,3,.14,4.16A23.33,23.33,0,0,0,58,47.94a14.29,14.29,0,0,0,.75,2.47q2,4.46,3.59,4.46c.84,0,1.69-1.06,2.57-3.18.58-1.48,1.1-2.94,1.56-4.36a35.24,35.24,0,0,0,1.06-4.08A37.89,37.89,0,0,0,68.09,39c.13-1.54.19-3.23.19-5.06s0-3.26-.06-4.28l13.06.78q1,6.47,1.22,7.79a25.38,25.38,0,0,1,.19,3.33A46.32,46.32,0,0,1,81,51.69a20.08,20.08,0,0,1-3.59,7.15,19.11,19.11,0,0,1-5.38,5.25,18.83,18.83,0,0,1-9.47,2.32,25.17,25.17,0,0,1-7.29-1.07,22.5,22.5,0,0,1-6.52-3.15,14.2,14.2,0,0,1-4.45-5.07A22.67,22.67,0,0,1,42,50.31a46.69,46.69,0,0,1-.66-8.19c0-1.79.06-3.52.18-5.18s.26-3.37.45-5.11S42.38,28.34,42.62,26.59Z"/><path class="cls-2" d="M106.81,28.37a13.19,13.19,0,0,1,3.61,3.55,26.76,26.76,0,0,1,2.49,4.19c.58,1.28,1,2.2,1.15,2.76l-11.59,2.57a2.52,2.52,0,0,0-1.66-2.07,8.37,8.37,0,0,0-2.87-.5Q90,39.62,90,48.34q.23,6.91,4.34,7.69a6.71,6.71,0,0,0,3.57-1,9,9,0,0,0,2.73-2.58,15.62,15.62,0,0,0,1.89-3.61l11.59,2.35c-.12.41-.42,1.25-.9,2.5a22.13,22.13,0,0,1-3.8,5.59,16.55,16.55,0,0,1-6.64,4.91A24.06,24.06,0,0,1,94,65.94a18.56,18.56,0,0,1-12.31-4.53,12.7,12.7,0,0,1-3.55-4.94,16.07,16.07,0,0,1-1.11-5.94A22.93,22.93,0,0,1,78,44.12a32.15,32.15,0,0,1,2.22-5.75A28.16,28.16,0,0,1,84,32.61,21.71,21.71,0,0,1,88.3,28.7a17.33,17.33,0,0,1,4.64-2.23,16.35,16.35,0,0,1,4.78-.72A16.68,16.68,0,0,1,106.81,28.37Z"/><path class="cls-2" d="M138.81,28.37a13.19,13.19,0,0,1,3.61,3.55,26,26,0,0,1,2.49,4.19c.58,1.28,1,2.2,1.15,2.76l-11.59,2.57a2.52,2.52,0,0,0-1.66-2.07,8.37,8.37,0,0,0-2.87-.5q-7.93.75-7.94,9.47.23,6.91,4.34,7.69a6.71,6.71,0,0,0,3.57-1,9,9,0,0,0,2.73-2.58,15.62,15.62,0,0,0,1.89-3.61l11.59,2.35c-.12.41-.42,1.25-.9,2.5a22.13,22.13,0,0,1-3.8,5.59,16.55,16.55,0,0,1-6.64,4.91A24.06,24.06,0,0,1,126,65.94a18.56,18.56,0,0,1-12.31-4.53,12.7,12.7,0,0,1-3.55-4.94,16.07,16.07,0,0,1-1.11-5.94,22.93,22.93,0,0,1,.91-6.41,32.15,32.15,0,0,1,2.22-5.75A28.16,28.16,0,0,1,116,32.61a21.71,21.71,0,0,1,4.33-3.91,17.33,17.33,0,0,1,4.64-2.23,16.35,16.35,0,0,1,4.78-.72A16.68,16.68,0,0,1,138.81,28.37Z"/><path class="cls-2" d="M172.56,48.22l7.53,9.09a9.8,9.8,0,0,1-4.29,4.81,28.68,28.68,0,0,1-8.07,3.46,35.63,35.63,0,0,1-9.32,1.26,22.88,22.88,0,0,1-7.36-1.09,10.39,10.39,0,0,1-5-3.31,15.18,15.18,0,0,1-3-9.75,26.26,26.26,0,0,1,1.7-9.24,17.4,17.4,0,0,1,3.61-6.36,23.54,23.54,0,0,1,5-3.59,23.93,23.93,0,0,1,5.54-2.16,24.27,24.27,0,0,1,5.91-.72,22.58,22.58,0,0,1,7.55,1.27,18.57,18.57,0,0,1,6.26,3.67L161.41,56a10.16,10.16,0,0,0,4.32-1,12.81,12.81,0,0,0,3.77-2.72A19.84,19.84,0,0,0,172.56,48.22Zm-8.65-7.28a6.84,6.84,0,0,0-3.13-.78,8,8,0,0,0-3.26.68,5.13,5.13,0,0,0-2.24,1.63,8.77,8.77,0,0,0-1.94,5.5,10.07,10.07,0,0,0,.22,2.09c.15.67.4,1.59.75,2.75Z"/><path class="cls-2" d="M210.81,41.69c-.62-.23-2.14-.72-4.54-1.46s-4.56-1.38-6.44-1.92-4-1.06-6.24-1.56a26.46,26.46,0,0,0-5.31-.75,3,3,0,0,0-1.53.31q-1.53,1.15-1.53,2.13,0,1.53,3.06,2.64a34.42,34.42,0,0,0,7.44,1.64,24.6,24.6,0,0,1,9.7,2.81,14.22,14.22,0,0,1,5.36,5,11.49,11.49,0,0,1,1.66,5.86,9.27,9.27,0,0,1-.85,4q-3.61,7.7-13.9,7.69a37.38,37.38,0,0,1-6.35-.61,67,67,0,0,1-6.76-1.5q-3.24-.89-6.89-2.08l-6.81-2.21c.54-1.13,1.22-2.49,2.06-4.08s1.64-3.15,2.42-4.67a17.65,17.65,0,0,0,1.17-2.5,6.84,6.84,0,0,0,2.27,1.35c.9.35,2.23.75,4,1.22a35.53,35.53,0,0,1,4,1.27A17.88,17.88,0,0,0,193,55.37a16.79,16.79,0,0,0,3.81-.42c1.21-.28,1.86-.51,1.94-.7,0-.54-.92-1.08-2.76-1.61a41.68,41.68,0,0,0-6.18-1.23,33.4,33.4,0,0,1-7.79-1.9,17.73,17.73,0,0,1-6.67-4.26,9.53,9.53,0,0,1-2.76-6.94,15.71,15.71,0,0,1,1.6-6.59,11.18,11.18,0,0,1,5.25-5.58,18.6,18.6,0,0,1,8.37-1.73A45,45,0,0,1,199.44,26q6,1.59,16.25,4.94c-.15.31-.72,1.64-1.72,4s-1.75,4.06-2.25,5.14S210.92,41.69,210.81,41.69Z"/><path class="cls-2" d="M246,41.69q-.93-.34-4.55-1.46c-2.4-.74-4.55-1.38-6.43-1.92s-4-1.06-6.24-1.56a26.46,26.46,0,0,0-5.31-.75,3,3,0,0,0-1.53.31q-1.53,1.15-1.53,2.13,0,1.53,3.06,2.64a34.42,34.42,0,0,0,7.44,1.64,24.6,24.6,0,0,1,9.7,2.81,14.3,14.3,0,0,1,5.36,5,11.57,11.57,0,0,1,1.65,5.86,9.41,9.41,0,0,1-.84,4q-3.63,7.7-13.9,7.69a37.38,37.38,0,0,1-6.35-.61,67,67,0,0,1-6.76-1.5q-3.24-.89-6.89-2.08l-6.82-2.21q.81-1.69,2.06-4.08c.84-1.6,1.65-3.15,2.43-4.67a17.65,17.65,0,0,0,1.17-2.5A6.79,6.79,0,0,0,214,51.76c.91.35,2.23.75,4,1.22a35.15,35.15,0,0,1,4,1.27,17.88,17.88,0,0,0,6.28,1.12A16.85,16.85,0,0,0,232,55c1.21-.28,1.86-.51,1.94-.7,0-.54-.92-1.08-2.77-1.61A41.28,41.28,0,0,0,225,51.41a33.6,33.6,0,0,1-7.8-1.9,17.89,17.89,0,0,1-6.67-4.26,9.57,9.57,0,0,1-2.75-6.94,15.56,15.56,0,0,1,1.6-6.59,11.09,11.09,0,0,1,5.25-5.58A18.6,18.6,0,0,1,223,24.41,44.88,44.88,0,0,1,234.62,26q6,1.59,16.26,4.94c-.15.31-.72,1.64-1.72,4s-1.75,4.06-2.25,5.14S246.1,41.69,246,41.69Z"/></g><g class="cls-1"><path class="cls-2" d="M254.25,43.75l-4.1-34.56,18.69-5.63L265,42.72Zm4.62,8.69a9.15,9.15,0,0,1,3.83.73A8.8,8.8,0,0,1,265.34,55a7.37,7.37,0,0,1,1.41,1.83,4.71,4.71,0,0,1,.37,1.88,7.75,7.75,0,0,1-.66,3.07,11.14,11.14,0,0,1-1.6,2.72,3.19,3.19,0,0,1-1.77,1.3,18.4,18.4,0,0,1-2.44.25,7.32,7.32,0,0,1-4.95-1.61A6.64,6.64,0,0,1,253.5,60a10.1,10.1,0,0,1,1.29-5A4.89,4.89,0,0,1,258.87,52.44Z"/></g></g></g></g></svg>